<?xml version="1.0" encoding="UTF-8"?>
<svg width="16px" height="17px" viewBox="0 0 16 17" version="1.1" xmlns="http://www.w3.org/2000/svg" xmlns:xlink="http://www.w3.org/1999/xlink">
    <title>Group 6</title>
    <defs>
        <filter id="filter-1">
            <feColorMatrix in="SourceGraphic" type="matrix" values="0 0 0 0 1.000000 0 0 0 0 1.000000 0 0 0 0 1.000000 0 0 0 1.000000 0"></feColorMatrix>
        </filter>
    </defs>
    <g id="Page-1" stroke="none" stroke-width="1" fill="none" fill-rule="evenodd">
        <g id="Group" transform="translate(-168.000000, -182.000000)">
            <g id="Group-6" transform="translate(168.000000, 182.954716)">
                <path d="M16,7.64528384 C16,8.43528384 14.72,9.02528384 14.48,9.73528384 C14.24,10.4452838 14.92,11.7352838 14.48,12.3252838 C14.04,12.9152838 12.64,12.6752838 12.02,13.1252838 C11.4,13.5752838 11.23,14.9652838 10.48,15.2152838 C9.73,15.4652838 8.81,14.4152838 8.01,14.4152838 C7.21,14.4152838 6.26,15.4152838 5.54,15.2152838 C4.82,15.0152838 4.62,13.5752838 4,13.1252838 C3.38,12.6752838 2,12.9452838 1.54,12.3252838 C1.08,11.7052838 1.77,10.4852838 1.54,9.73528384 C1.31,8.98528384 0,8.43528384 0,7.64528384 C0,6.85528384 1.28,6.26528384 1.52,5.55528384 C1.76,4.84528384 1.08,3.55528384 1.52,2.96528384 C1.96,2.37528384 3.37,2.61528384 4,2.16528384 C4.63,1.71528384 4.78,0.32528384 5.53,0.04528384 C6.28,-0.23471616 7.2,0.87528384 8,0.87528384 C8.8,0.87528384 9.75,-0.12471616 10.47,0.07528384 C11.19,0.27528384 11.38,1.71528384 12,2.16528384 C12.62,2.61528384 14,2.34528384 14.46,2.96528384 C14.92,3.58528384 14.23,4.80528384 14.46,5.55528384 C14.69,6.30528384 16,6.85528384 16,7.64528384 Z" id="Path" fill="#364051"></path>
                <g filter="url(#filter-1)" id="Group">
                    <g transform="translate(2.000000, 3.545284)">
                        <path d="M8.5906,2.39993 L7.19223,3.29993 C6.99246,3.39993 6.89258,3.39993 6.69281,3.29993 C6.59293,3.19993 6.39317,3.09993 6.29328,2.99993 C5.89375,2.89993 5.5941,2.99993 5.29445,3.19993 L4.79504,3.49993 L2.29797,5.19993 C1.69867,5.49993 0.99949,5.39993 0.69984,4.79993 C0.30031,4.29993 0.50008,3.59993 0.99949,3.19993 L3.99598,1.19993 C4.79504,0.69993 5.79387,0.49993 6.69281,0.69993 C7.49188,0.89993 8.0912,1.29993 8.5906,1.89993 C8.7904,2.09993 8.6905,2.29993 8.5906,2.39993 Z" id="Path" fill="#000000" fill-rule="nonzero"></path>
                        <path d="M11.4871,3.79985 C11.4871,4.19985 11.2874,4.59985 10.9877,4.79985 L7.89135,6.7999 C7.29206,7.1999 6.69276,7.3999 5.99358,7.3999 C5.69393,7.3999 5.49417,7.3999 5.19452,7.2999 C4.39545,7.0999 3.79616,6.6999 3.29674,6.0999 C3.19686,5.89985 3.29674,5.69985 3.39663,5.59985 L4.79499,4.69985 C4.89487,4.59985 5.09463,4.59985 5.19452,4.69985 C5.39428,4.79985 5.59405,4.89985 5.69393,4.99985 C6.09346,4.99985 6.39311,4.99985 6.69276,4.79985 L7.39194,4.39985 L9.3896,2.99985 L9.6892,2.79985 C10.1887,2.49985 10.9877,2.59985 11.2874,3.09985 C11.4871,3.39985 11.4871,3.59985 11.4871,3.79985 Z" id="Path" fill="#000000" fill-rule="nonzero"></path>
                    </g>
                </g>
            </g>
        </g>
    </g>
</svg>