<?xml version="1.0" encoding="UTF-8"?>
<svg width="573px" height="565px" viewBox="0 0 573 565" version="1.1" xmlns="http://www.w3.org/2000/svg" xmlns:xlink="http://www.w3.org/1999/xlink">
    <title>7</title>
    <g id="Page-1" stroke="none" stroke-width="1" fill="none" fill-rule="evenodd">
        <g id="Group-2" transform="translate(0.000000, -1683.000000)" fill-rule="nonzero">
            <g id="7" transform="translate(0.000000, 1683.000000)">
                <g id="Window_5_" transform="translate(0.000000, 119.000000)">
                    <path d="M204.7,61.1 C186.6,61.2 168.5,61.3 150.5,61.3 C145.1,61.3 139.7,61.3 134.4,61.2 C134.9,37.2 148.3,42.8 176.6,41.8 C202.9,40.8 204.6,54.7 204.7,61.1 Z" id="Path" fill="#B3BFE2"></path>
                    <path d="M273.7,62 C255.6,62.1 237.5,62.2 219.5,62.2 C214.1,62.2 208.7,62.2 203.4,62.1 C203.9,38.1 217.3,43.7 245.6,42.7 C271.9,41.8 273.7,55.6 273.7,62 Z" id="Path" fill="#B3BFE2"></path>
                    <path d="M46.6,223.9 C35.7,223.9 28.2,222.5 23.5,218.1 C20,214.8 18.4,210 18.4,203.3 C18.6,191.3 26.7,186 34.6,180.9 C42.5,175.8 50,170.9 50.2,159 C50.4,141.2 42.1,137.2 3.1,136.7 C1.6,136.7 0.4,135.5 0.4,134 C0.4,132.5 1.7,131.3 3.1,131.3 C39,131.8 55.9,134.7 55.5,159.1 C55.3,173.9 45.8,180 37.5,185.4 C30.2,190.1 23.9,194.2 23.8,203.3 C23.7,208.4 24.8,211.8 27.2,214.1 C33.2,219.8 48.7,218.8 72.1,217.2 C82,216.5 93.3,215.7 106.2,215.3 C107.7,215.2 108.9,216.4 109,217.9 C109.1,219.4 107.9,220.6 106.4,220.7 C93.6,221.1 82.4,221.9 72.5,222.6 C62.3,223.3 53.8,223.9 46.6,223.9 Z" id="Path" fill="#FFFFFF"></path>
                    <path d="M116.7,186.1 C97.1,186.9 101.2,189 99.6,215.2 C98.3,238.1 106,240.3 117,240.8 C116.1,222.6 115.5,204.3 116.7,186.1 Z" id="Path" fill="#FFFFFF"></path>
                    <path d="M385.3,315.2 C374.1,315.2 361.5,315 347.2,314.8 C327.8,314.5 280.1,314.1 280.1,314.1 C261.1,314.1 244.3,314.4 229.5,314.6 C172.9,315.5 144.5,315.9 129.5,301.1 C114.2,286 114.2,255.9 114.3,196 C114.3,186.7 114.3,176.6 114.3,165.8 C114.2,151.9 113.9,138.8 113.6,126.2 C112.2,67.3 111.2,24.7 140.4,11.7 C163.9,1.2 226,1 291.7,0.8 C304.7,0.8 317.7,0.7 330.3,0.6 L333.7,0.6 C448.9,-0.6 463.7,-0.8 468.5,64 C469.8,81.7 473.8,135.6 474,170.7 C474,177.1 474.1,183.1 474.1,189 C474.6,252.4 474.9,284.2 458.5,300.5 C445.9,312.7 424,315.2 385.3,315.2 Z M283,308.7 C307.5,308.7 328.6,309.1 347.4,309.4 C409.1,310.4 440,310.9 454.8,296.4 C469.5,281.8 469.3,250.7 468.8,188.8 C468.8,183 468.7,176.9 468.7,170.5 C468.5,135.6 464.5,81.9 463.2,64.2 C458.8,4.5 449.4,4.6 333.9,5.8 L330.5,5.8 C317.8,5.9 304.8,6 291.8,6 C229.5,6.2 165.1,6.4 142.6,16.5 C116.6,28.1 117.6,69.1 119,126 C119.3,138.7 119.6,151.8 119.7,165.7 C119.7,176.6 119.7,186.6 119.7,196 C119.6,254.4 119.6,283.8 133.3,297.3 C146.7,310.5 174.3,310.1 229.4,309.2 C244.2,309 261.1,308.7 280.1,308.7 C281.1,308.7 282.1,308.7 283,308.7 Z" id="Shape" fill="#FFFFFF"></path>
                    <path d="M148.8,63.9 C144.1,63.9 139.4,63.9 134.7,63.8 L134.3,63.8 C128.5,63.8 122.7,63.7 117,63.6 C116.2,63.6 115.5,63.3 115,62.7 C114.5,62.1 114.3,61.4 114.3,60.6 C117.1,33.5 125.1,18.3 140.4,11.5 C163.9,1 226.1,0.8 291.9,0.6 C304.8,0.6 317.8,0.5 330.3,0.4 L333.5,0.4 C445.4,-0.8 462.6,-0.9 468,57.7 C468.1,58.4 467.8,59.2 467.3,59.8 C466.8,60.4 466.1,60.7 465.3,60.7 L424,61.3 C352.1,62.4 277.8,63.5 204.7,63.8 C186.6,63.9 168.5,64 150.4,64 C149.9,63.9 149.3,63.9 148.8,63.9 Z M120,58.3 C124.8,58.4 129.5,58.4 134.3,58.5 L134.7,58.5 C139.9,58.5 145.2,58.6 150.4,58.6 C168.5,58.6 186.5,58.5 204.6,58.4 C277.7,58 352,56.9 423.9,55.9 L462.3,55.3 C457.1,4.6 441.6,4.7 333.6,5.9 L330.4,5.9 C317.8,6 304.9,6.1 291.9,6.1 C229.6,6.3 165.1,6.6 142.6,16.6 C129.8,22.2 122.8,35.1 120,58.3 Z" id="Shape" fill="#FFFFFF"></path>
                    <path d="M457.3,138.6 C455.8,103.1 457.3,101.5 448.3,101.4 C439.3,101.3 434.8,100.8 435.2,107.6 C435.6,114.4 436.3,150.5 437,157.6 C437.7,164.7 439.9,165.2 447.7,164.2 C458.1,162.8 458.5,165.8 457.3,138.6 Z" id="Path" fill="#B3BFE2"></path>
                    <path d="M157,82.1 C142.1,80.4 139.1,103.5 156.7,103.8 C173,104 170.6,83.6 157,82.1 Z" id="Path" fill="#5C68FF"></path>
                </g>
                <g id="Brick_5" transform="translate(393.000000, 332.000000)">
                    <path d="M164.7,27.9 C150.3,9.8 148.5,1.3 129.2,11.2 C121.7,0.7 118.7,-4.2 106.6,4.9 C94.7,13.9 91.2,13.9 99.9,29.5 C95.5,32.5 90.6,35.8 85.3,39.4 C78.3,29.6 75.1,25.3 63.4,34.1 C51.5,43.1 47.2,43.6 55.8,59.3 C50.8,62.6 46.3,65.7 42,68.5 C35,58.7 31.8,54.4 20.1,63.2 C7.9,72.5 3.8,71.8 13.3,88.7 C-3.5,102.1 -1.9,107.7 7,122.4 C22.4,147.9 29.1,161.4 45.4,149.8 C61.6,138.2 150.5,81 167,68.2 C183.5,55.5 184.9,53.3 164.7,27.9 Z" id="Path" fill="#5C68FF"></path>
                    <path d="M44.2,120.5 C40.2,120.5 38.2,118.7 37.2,117.2 C30.3,106.5 34.1,103.8 81,70.1 L89.3,64.1 C114.3,46.1 124.5,40.3 131,40.3 C137,40.3 139,45.3 139.7,46.9 C143.6,56.4 130.2,66.3 111.5,80 C106.8,83.4 102,87 97,90.9 C82.7,101.9 56.8,120.5 44.2,120.5 L44.2,120.5 Z" id="Path" fill="#FFFFFF"></path>
                    <path d="M131,43 C134.1,43 135.9,44.8 137.2,47.9 C141.1,57.4 119,70.3 95.4,88.6 C76.2,103.4 54.3,117.7 44.2,117.7 C42,117.7 40.4,117 39.5,115.6 C33.7,106.6 37.8,104.4 90.9,66.2 C113.7,49.9 124.9,43 131,43 M131,37.5 C123.7,37.5 113.6,43.2 87.7,61.8 L79.4,67.8 C56,84.6 44.3,93 38.2,99.1 C31.2,106 30.3,111.5 34.9,118.6 C36,120.3 38.7,123.2 44.2,123.2 C56.9,123.2 80.8,106.8 98.7,93 C103.6,89.2 108.5,85.6 113.2,82.2 C132.8,67.8 147,57.4 142.3,45.9 C139.4,39 134.6,37.5 131,37.5 L131,37.5 Z" id="Shape" fill="#000000"></path>
                    <path d="M84.6,70.8 C37.6,104.6 34,107 39.6,115.6 C44.9,123.8 72.2,106.6 95.5,88.6 C100.4,84.8 105.1,81.3 109.7,78 C101.2,75.8 92.8,73.6 84.6,70.8 Z" id="Path" fill="#5C68FF"></path>
                    <path d="M97.3,61.7 C95.3,63.1 93.2,64.6 91,66.2 C90.5,66.6 89.9,67 89.4,67.3 C97.7,69.9 106.1,72.1 114.5,74.4 C117.3,72.4 119.9,70.4 122.3,68.5 C113.9,66.2 105.6,64.1 97.3,61.7 Z" id="Path" fill="#5C68FF"></path>
                </g>
                <g id="Brick_4" transform="translate(356.000000, 462.000000)">
                    <path d="M127.8,30.7 C126.8,-2.6 123.8,3.2 52.1,1 C-3,-0.7 3.1,0.5 1.2,38.9 C-0.3,68 1,76.2 15.4,78.1 C18,78.4 22.6,78.7 28.5,78.9 C27.8,97.8 26.8,102.5 39.7,102.2 C54,101.8 54.7,104.7 55.5,79.3 C61.8,79.3 68.2,79.4 74.5,79.4 C73.8,98.4 72.8,103.1 85.7,102.8 C100.1,102.4 100.7,105.4 101.5,79.5 C108.3,79.6 113.6,79.7 116.5,79.8 C130.2,80.7 128.8,63.9 127.8,30.7 Z" id="Path" fill="#FDD05B"></path>
                    <path d="M50.3,56.9 C54.1,66 65.9,68.8 73.8,63.9 C76.8,62.1 73.9,57.5 70.9,59.3 C66.1,62.3 58.9,61.2 55.8,56 C51.6,48.8 58.6,41 65.9,41 C67.4,41 68.5,39.6 68.5,38.2 C68.6,35 69,33.3 69.1,30.1 C69.2,26.6 63.8,26.8 63.7,30.3 C63.6,32.6 63.3,33.5 63.2,35.8 C53.9,37.4 46.4,47.4 50.3,56.9 Z" id="Path" fill="#000000"></path>
                    <path d="M69.2,22.4 L69.4,19.7 C69.7,16.2 64.3,15.8 64,19.3 L63.8,22 C63.5,25.4 68.9,25.9 69.2,22.4 Z" id="Path" fill="#000000"></path>
                </g>
                <g id="Brick_3" transform="translate(19.000000, 380.000000)">
                    <path d="M64,23.5 C68.8,10.4 69.4,6.7 58.4,3.5 C46.1,-0.1 45,-2.9 38.7,14 C14.1,4.7 16.2,8.1 6.8,32.6 C-0.8,52.5 -2,58.5 5.6,62.5 C13.2,66.5 50.4,82.5 61.6,83 C69.7,83.4 72.2,74.4 79.5,51.1 C85.3,32.6 84.5,31 64,23.5 Z" id="Path" fill="#FF1A36"></path>
                    <path d="M57.7,32.2 C47.8,34.5 38,36.7 28.1,39 C25.9,39.5 25.7,42 26.8,43.5 L45,66.9 C47.1,69.7 51,65.8 48.9,63.1 C43.8,56.5 38.6,49.9 33.5,43.3 C42,41.4 50.5,39.4 59,37.5 C62.5,36.7 61.2,31.5 57.7,32.2 Z" id="Path" fill="#FFFFFF"></path>
                </g>
                <g id="Hand__x2B__Brick" transform="translate(164.000000, 0.000000)">
                    <path d="M267.2,0.6 C197.7,3.3 114.4,19.3 59.4,82.7 C4.4,146.1 78.2,180.6 98.7,184.3 C120.3,188.2 138.4,185.7 141.3,170.4 C141.3,170.4 162.5,172.5 165.5,152.7 C165.5,152.7 196.7,148.6 179,120.4 C179,120.4 240.6,106.8 265.8,106.2 C291,105.6 284.3,75.8 284.7,42.4 C285.1,9 278.2,0.2 267.2,0.6 Z" id="Path" fill="#5C68FF"></path>
                    <g id="Group" transform="translate(0.000000, 95.000000)">
                        <path d="M123.3,48.5 C122.2,24.4 125.9,19.4 98.7,18.4 C99,4.1 98.5,0.3 86.2,0.8 C72.2,1.3 70.4,-1.1 69.9,18.1 C61.3,18.1 53.8,18 47.3,17.9 C47.6,3.4 47.2,-0.4 34.8,0.1 C20.6,0.6 18.9,-1.8 18.5,18.2 C3.8,19.5 2.5,24.2 1.6,39.1 C0.2,64.7 -1.4,77.5 11.8,77.2 C25,76.9 95.2,79.4 109.1,78.3 C122.9,77.2 124.3,70.9 123.3,48.5 Z" id="Path" fill="#F26AAC"></path>
                        <path d="M37.6,56 C32.7,50.5 27.8,45 22.9,39.6 C20.6,37 16.7,40.8 19,43.4 C23.9,48.9 28.8,54.4 33.7,59.8 C36,62.4 39.9,58.6 37.6,56 Z" id="Path" fill="#000000"></path>
                        <path d="M34.7,37.4 C29.6,44.5 24.6,51.7 19.5,58.8 C17.5,61.7 22.1,64.4 24.1,61.6 C29.2,54.5 34.2,47.3 39.3,40.2 C41.4,37.4 36.7,34.6 34.7,37.4 Z" id="Path" fill="#000000"></path>
                        <path d="M62.9,46.1 L49.4,45.9 C45.9,45.9 45.8,51.3 49.3,51.3 L62.8,51.5 C66.3,51.6 66.4,46.1 62.9,46.1 Z" id="Path" fill="#000000"></path>
                    </g>
                    <path d="M142.2,168.3 C140.4,160.8 134.4,154.8 126.9,153.1 C123.5,152.3 122,157.5 125.4,158.3 C131.2,159.6 135.6,163.9 137,169.7 C137.8,173 143,171.6 142.2,168.3 Z" id="Path" fill="#000000"></path>
                    <g id="Group" transform="translate(74.000000, 79.000000)">
                        <path d="M59,5.6 C1.5,53.6 -7.8,71.5 6.6,80.7 C20.9,89.9 68.3,55.3 110.3,22.5 C152.3,-10.3 59,5.6 59,5.6 Z" id="Path" fill="#5C68FF"></path>
                        <path d="M52.1,0.9 C42.4,12 32.8,23.2 23.1,34.3 C20.8,36.9 24.6,40.8 26.9,38.2 C36.6,27.1 46.2,15.9 55.9,4.8 C58.2,2.2 54.4,-1.7 52.1,0.9 Z" id="Path" fill="#000000"></path>
                        <path d="M111,23.2 C91,36.1 70.9,49.1 50.9,62 C48,63.9 50.6,68.6 53.6,66.7 C73.6,53.8 93.7,40.8 113.7,27.9 C116.6,26 113.9,21.3 111,23.2 Z" id="Path" fill="#000000"></path>
                        <path d="M26.1,53.3 C24.4,50.3 19.7,52.9 21.4,56 C26.2,64.6 16.8,73.9 8.3,68.9 C5.3,67.1 2.5,71.8 5.5,73.5 C11.3,76.9 18.9,76.4 23.8,71.6 C28.7,66.8 29.3,59.1 26.1,53.3 Z" id="Path" fill="#000000"></path>
                    </g>
                    <path d="M166.3,150.6 C163.3,142.6 157.3,136.6 149.2,133.7 C145.9,132.5 144.4,137.7 147.7,138.9 C153.8,141.1 158.8,145.9 161.1,152 C162.3,155.2 167.6,153.9 166.3,150.6 Z" id="Path" fill="#000000"></path>
                    <path d="M182.7,120.8 C179.1,117.7 175,115.5 170.3,114.5 C166.9,113.8 165.4,119 168.8,119.7 C172.5,120.5 175.9,122 178.8,124.6 C181.4,126.9 185.3,123.1 182.7,120.8 Z" id="Path" fill="#000000"></path>
                </g>
                <g id="Brick_2" transform="translate(205.000000, 228.000000)">
                    <path d="M184.6,54.3 C183.1,30.9 186.5,22.9 165,19.9 C164.8,7 165.1,1.2 150,1.8 C135.1,2.4 132.2,0.3 130.5,18.1 C125.2,18 119.3,18 112.9,17.9 C112.8,5.8 112.6,0.5 98,1 C83.1,1.6 79.3,-0.5 77.4,17.4 C71.4,17.3 65.9,17.2 60.8,17.1 C60.7,5 60.5,-0.3 45.9,0.3 C30.5,0.9 27.6,-2 25.8,17.4 C4.4,18.8 2.5,24.4 1.4,41.8 C-0.5,71.9 -2.7,87 17.2,86.8 C37.1,86.6 142.8,90.3 163.6,89.2 C184.4,88.1 186.8,87.1 184.6,54.3 Z" id="Path" fill="#FDD05B"></path>
                    <path d="M106.6,48.7 C60.1,47.9 58.2,46.3 57.5,54.8 C56.8,63.3 55.9,67.6 64.8,67.6 C73.7,67.6 121,69.3 130.3,69.1 C139.6,68.9 140.5,66.8 139.5,59.3 C138.3,49.5 142.3,49.3 106.6,48.7 Z" id="Path" fill="#FFFFFF"></path>
                    <path d="M27.3,47.8 C42.8,48.4 43.5,46.9 43.7,55.4 C43.9,63.9 44.2,68.2 41.3,68 C38.3,67.8 22.5,68 19.4,67.5 C16.3,67 16,64.9 16.3,57.5 C16.7,47.7 15.4,47.3 27.3,47.8 Z" id="Path" fill="#FF1A36"></path>
                    <path d="M158.4,69.6 C158,69.6 157.5,69.6 157.1,69.5 C149.8,68.7 146.6,62.6 147.2,56.9 C147.7,51.5 151.9,46.4 158.8,47 L158.8,47 C165.4,47.6 168,51.2 169,53.4 C170.6,57 170.1,61.5 167.7,64.9 C165.4,67.9 162.1,69.6 158.4,69.6 Z M157.6,52.4 C154.2,52.4 152.7,55.1 152.5,57.4 C152.2,60.3 153.7,63.7 157.6,64.1 C160.6,64.4 162.4,62.7 163.1,61.7 C164.4,59.9 164.7,57.5 163.9,55.7 C163,53.8 161.1,52.7 158.2,52.5 C158,52.4 157.8,52.4 157.6,52.4 Z" id="Shape" fill="#000000"></path>
                    <path d="M177.2,76.1 C174.5,72.2 171.9,68.2 169.2,64.3 C167.3,61.4 162.5,64.1 164.5,67 C167.2,70.9 169.8,74.9 172.5,78.8 C174.5,81.7 179.2,79 177.2,76.1 Z" id="Path" fill="#000000"></path>
                    <path d="M65.4,53 L65.3,62 C65.3,65.5 70.7,65.6 70.7,62.1 L70.8,53.1 C70.9,49.6 65.5,49.5 65.4,53 Z" id="Path" fill="#5C68FF"></path>
                </g>
                <g id="Brick_1" transform="translate(156.000000, 296.000000)">
                    <path d="M140.8,19.9 C8.8,18.6 3.3,12.2 1,47.9 C-1.3,83.6 -8.32667268e-17,101.6 25.3,102.2 C61.1,103.1 185.9,106.1 212.4,104.8 C238.9,103.5 239.1,100.1 236.3,54.1 C233.7,12.8 242.1,20.9 140.8,19.9 Z" id="Path" fill="#F26AAC"></path>
                    <path d="M15.5,27 C16,0.8 19,2.1 30.7,1 C42.4,-0.1 41,7.1 41.8,23.3 C42.6,39.6 15.5,27 15.5,27 Z" id="Path" fill="#F26AAC"></path>
                    <path d="M205.6,83.3 C203.9,83.4 202,83.6 199.8,83.6 C198.6,80.9 197.4,78.2 196.1,75.5 C194.7,72.4 191.3,63.2 189.2,60.6 C182.5,52.3 176.1,70.2 169.1,84.4 C166.8,84.2 164.9,83.8 163.4,83.2 C167.3,75.5 171.5,67.9 176.1,60.6 C178.5,56.9 181.5,52.1 186.6,52.4 C192.1,52.8 194.4,58.9 196.3,63.1 C199.5,69.9 202.6,76.6 205.6,83.3 Z" id="Path" fill="#FFFFFF"></path>
                    <path d="M199.4,52.8 L199.4,54 C199.3,58.6 206.4,58.7 206.5,54.1 L206.5,52.9 C206.5,48.3 199.4,48.2 199.4,52.8 Z" id="Path" fill="#FFFFFF"></path>
                    <path d="M92.9,46.9 C70,46.9 47.2,47 24.3,47 C20.8,47 20.7,52.4 24.2,52.4 C47.1,52.4 69.9,52.3 92.8,52.3 C96.3,52.3 96.4,46.9 92.9,46.9 Z" id="Path" fill="#000000"></path>
                    <path d="M74.5,70.1 C57.1,70 39.6,70 22.2,69.9 C18.7,69.9 18.6,75.3 22.1,75.3 C39.5,75.4 57,75.4 74.4,75.5 C77.9,75.5 78,70.1 74.5,70.1 Z" id="Path" fill="#000000"></path>
                    <path d="M140,21.5 C140,18 134.6,17.9 134.6,21.4 C134.8,48.8 135,76.2 135.2,103.6 C135.2,107.1 140.6,107.2 140.6,103.7 C140.4,76.2 140.2,48.8 140,21.5 Z" id="Path" fill="#000000"></path>
                    <path d="M174.3,87.4 C172.3,87.4 170.5,87.3 168.9,87.2 C166.3,87 164.1,86.5 162.4,85.8 C158.2,84.1 156.1,80.8 156.2,75.9 C156.3,71.7 156.3,67.9 156.3,64.6 C156.3,51.3 156.3,44.6 160.2,40.7 C164.1,36.9 170.8,37 184,37.3 C186.9,37.4 190.1,37.4 193.8,37.5 C215.2,37.8 216.8,39 218.2,56.1 C218.4,58.8 218.7,61.9 219,65.5 C220,74.2 220.3,78.9 217.6,82.1 C215.3,84.8 211.6,85.6 205.8,86 C204.1,86.1 202.1,86.3 199.9,86.3 C198.5,86.4 196.9,86.4 195.2,86.5 C193.5,86.6 191.8,86.6 189.9,86.7 L188.6,86.8 C183,87.1 178.3,87.4 174.3,87.4 Z M175.1,42.6 C169.2,42.6 165.6,43 164,44.6 C161.7,46.9 161.7,53.2 161.7,64.6 C161.7,67.9 161.7,71.7 161.6,76 C161.6,79.1 162.7,80.1 164.4,80.8 C165.6,81.3 167.2,81.6 169.3,81.8 C173.8,82.2 180.2,81.9 188.2,81.5 L189.5,81.4 C191.4,81.3 193.2,81.2 194.9,81.2 C196.6,81.1 198.2,81.1 199.6,81 C201.8,80.9 203.7,80.8 205.3,80.7 C205.3,80.7 205.3,80.7 205.3,80.7 C210.1,80.4 212.5,79.8 213.3,78.7 C214.6,77.2 214.2,72.7 213.5,66.1 C213.1,62.4 212.8,59.2 212.6,56.5 C212,49.3 211.7,46 210,44.7 C208,43.1 202.4,43 193.5,42.9 C189.9,42.9 186.6,42.8 183.7,42.7 C180.5,42.6 177.6,42.6 175.1,42.6 Z" id="Shape" fill="#000000"></path>
                </g>
                <g id="Dashes_12_" transform="translate(143.000000, 46.000000)" fill="#5C68FF">
                    <path d="M25.2,32.3 C18.5,29.1 11.7,25.8 5,22.6 C1.9,21.1 -0.9,25.7 2.2,27.2 C8.9,30.4 15.7,33.7 22.4,36.9 C25.5,38.4 28.4,33.8 25.2,32.3 Z" id="Path"></path>
                    <path d="M41.2,21.4 C38.6,15 36,8.7 33.3,2.3 C32,-0.9 27.3,1.8 28.6,5 C31.2,11.4 33.8,17.7 36.5,24.1 C37.8,27.3 42.5,24.6 41.2,21.4 Z" id="Path"></path>
                </g>
            </g>
        </g>
    </g>
</svg>