<?xml version="1.0" encoding="UTF-8"?>
<svg width="631px" height="520px" viewBox="0 0 631 520" version="1.1" xmlns="http://www.w3.org/2000/svg" xmlns:xlink="http://www.w3.org/1999/xlink">
    <title>29</title>
    <g id="Page-1" stroke="none" stroke-width="1" fill="none" fill-rule="evenodd">
        <g id="29" fill-rule="nonzero">
            <g id="Boards" transform="translate(85.000000, 258.000000)" fill="#8C94BF">
                <path d="M433.7,28.8 L15.3,29.5 C0.4,30.2 -6.4,0.4 9.2,0.4 L439.8,3.1 C455.3,3 449.2,28.8 433.7,28.8 Z" id="Path"></path>
                <path d="M437.1,230.5 L14.6,230.5 C3.8,229.8 -6.4,204.8 9.2,204.8 L442.5,202.1 C454.7,201.4 452.6,231.2 437.1,230.5 Z" id="Path"></path>
                <path d="M72.2,229.8 L72.9,245.4 C72.9,254.1 84.4,254.2 86.4,245.4 L89.4,228.7 C89.3,220 72.2,221.1 72.2,229.8 Z" id="Path"></path>
                <path d="M371.4,226.4 L373.4,245.4 C374.8,254.9 386.9,254.1 386.9,245.4 L386.9,231.9 C387,223.1 371.4,217.7 371.4,226.4 Z" id="Path"></path>
                <path d="M68.8,20.6 L72.9,35.5 C74.9,43.6 86.4,44.2 86.4,35.5 L86.4,22 C86.4,13.3 68.8,11.9 68.8,20.6 Z" id="Path"></path>
                <path d="M372.1,18.6 L373.5,35.5 C373.5,44.2 387,44.2 387,35.5 L388.4,19.3 C388.3,10.6 372.1,9.9 372.1,18.6 Z" id="Path"></path>
            </g>
            <g id="Hand_2_1_" transform="translate(421.000000, 313.000000)">
                <path d="M207.8,58.4 L209.2,140 C209.3,142.7 207,144.9 204.3,144.8 C183.9,143.7 106.7,139.7 78.7,139.7 C46.2,139.7 44.2,55.8 44.2,55.8 L182.3,66.6 L201.1,54.4 C204.2,52.8 207.8,55 207.8,58.4 Z" id="Path" fill="#FF1A36"></path>
                <path d="M6.3,0.399167534 C6.3,0.399167534 100.7,0.2 103.8,6 C111.9,21 103.7,139 98.4,144.7 C92.8,150.7 22.2,148.2 5.4,144.7 C-3.7,142.8 3.6,8.8 6.3,0.399167534 Z" id="Path" fill="#FDD05B"></path>
                <path d="M74.2,42.2 C83.8,31.1 93.5,19.9 103.1,8.8 C105.4,6.2 101.4,2.5 99.1,5.2 C82.1,24.9 65.1,44.5 48.1,64.2 C47.3,65.1 47.2,66.5 47.8,67.5 C64.8,91.6 79.2,117.1 91.1,144 C92.5,147.2 97.7,145.5 96.2,142.3 C85.8,118.7 73.6,96.1 59.3,74.7 C54.2,67.2 54.6,64.9 60.5,58 C65.2,52.7 69.7,47.4 74.2,42.2 Z" id="Path" fill="#F26AAC"></path>
                <path d="M61.7,47 C44.6,31.6 27.5,16.3 10.3,0.9 C7.7,-1.4 3.9,2.4 6.5,4.7 L57.9,50.8 C60.4,53.1 64.3,49.3 61.7,47 Z" id="Path" fill="#F26AAC"></path>
                <path d="M58.6,79.8 C41.1,99.6 23.6,119.4 6.1,139.2 C3.8,141.8 7.6,145.6 9.9,143 C27.4,123.2 44.9,103.4 62.4,83.6 C64.7,81 60.9,77.2 58.6,79.8 Z" id="Path" fill="#F26AAC"></path>
                <path d="M203.6,54 C163.5,52.5 83.9,48 79.2,61.5 C74.5,75 117.8,76.4 142.2,82.5 C166.5,88.5 203.6,54 203.6,54 Z" id="Path" fill="#FF1A36"></path>
                <path d="M168.1,82.2 C148.8,78.9 129.4,76.8 109.8,76 C106.3,75.9 106.3,81.3 109.8,81.4 C128.9,82.2 147.8,84.2 166.6,87.4 C170.1,88 171.5,82.8 168.1,82.2 Z" id="Path" fill="#000000"></path>
                <path d="M118,93.4 L107.8,93.4 C104.3,93.4 104.3,98.8 107.8,98.8 L118,98.8 C121.5,98.8 121.5,93.4 118,93.4 Z" id="Path" fill="#000000"></path>
                <path d="M118.6,116 C114.8,115.8 110.9,115.6 107.1,115.4 C103.6,115.2 103.6,120.6 107.1,120.8 C110.9,121 114.8,121.2 118.6,121.4 C122.1,121.6 122.1,116.2 118.6,116 Z" id="Path" fill="#000000"></path>
                <path d="M97.1,58.2 C95.2,61.4 90.9,60.7 90,57.2 C89.1,53.8 83.9,55.3 84.8,58.6 C86.9,66.7 97.6,68.1 101.8,60.9 C103.5,58 98.8,55.2 97.1,58.2 Z" id="Path" fill="#000000"></path>
            </g>
            <g id="Cloth" transform="translate(35.000000, 55.000000)">
                <path d="M75.5,31.8 C46.6,71.5 6,84.2 0.6,94.1 C-4.8,104 29.5,87.8 35.8,96.8 C42.1,105.8 25.9,123.9 77.3,139.2 C128.8,154.5 169.4,37.2 197.4,36.3 C225.4,35.4 226.3,21 222.7,7.4 C219.1,-6.1 201.9,3.8 164.9,7.4 C127.8,11.1 75.5,31.8 75.5,31.8 Z" id="Path" fill="#FDD05B"></path>
                <path d="M60.5,66.6 C54.2,76.8 47.8,87.1 41.5,97.3 C39.7,100.3 44.3,103 46.2,100 L65.2,69.3 C67,66.3 62.3,63.6 60.5,66.6 Z" id="Path" fill="#000000"></path>
                <path d="M72.2,66.4 C70.9,72.1 69.6,77.8 68.3,83.5 C67.5,86.9 72.7,88.3 73.5,84.9 C74.8,79.2 76.1,73.5 77.4,67.8 C78.2,64.4 73,63 72.2,66.4 Z" id="Path" fill="#000000"></path>
            </g>
            <g id="Book_2" transform="translate(100.000000, 300.000000)">
                <path d="M50.8,22 C50.8,22 42.9,27.1 32.5,28.5 C21.5,29.9 7.9,27.5 2.3,23.3 C2.3,23.3 8.4,130.6 9.5,153.7 C9.5,154.6 10,155.3 10.8,155.7 C16.1,158.4 41,165.3 56.5,158.7 C78.8,149.2 83.6,153.3 83.6,134.3 C83.6,115.3 79.5,4.2 79.5,4.2 C79.5,4.2 61.6,16.6 50.8,22 Z" id="Path" fill="#F26AAC"></path>
                <path d="M36.4,0.6 C25,6.7 13.6,12.7 2.2,18.8 C-0.9,20.4 1.9,25.1 4.9,23.5 C16.3,17.4 27.7,11.4 39.1,5.3 C42.2,3.6 39.4,-1 36.4,0.6 Z" id="Path" fill="#2E47FF"></path>
                <path d="M46.7,20.1 C34.2,29.2 17.8,28.5 5.6,19.3 C2.8,17.2 -5.63993297e-14,21.8 2.7,23.9 C16.9,34.7 36,34.5 50.4,24.1 C53.2,22 49.5,18 46.7,20.1 Z" id="Path" fill="#2E47FF"></path>
                <path d="M51.4,1.9 C46.6,4.9 41.8,7.9 36.9,10.9 C33.9,12.7 36.7,17.4 39.6,15.6 C44.4,12.6 49.2,9.6 54.1,6.6 C57.1,4.7 54.4,0.1 51.4,1.9 Z" id="Path" fill="#2E47FF"></path>
                <path d="M76,2.3 L54.2,18.4 C51.4,20.4 54.1,25.1 56.9,23.1 C64.2,17.7 71.4,12.4 78.7,7 C81.6,4.9 78.9,0.2 76,2.3 Z" id="Path" fill="#2E47FF"></path>
                <path d="M54,35.1 C53.9,31.6 48.5,31.6 48.6,35.1 C49.6,73.6 50.7,112.1 51.7,150.6 C51.8,154.1 57.2,154.1 57.1,150.6 C56.1,112.1 55.1,73.6 54,35.1 Z" id="Path" fill="#2E47FF"></path>
                <path d="M10.5,54 C10.5,69.4 8.7,69.3 24,70.2 C39.3,71.1 39.3,72 39.3,59.4 C39.3,46.8 35.7,49.3 24.9,48.6 C11.4,47.7 10.5,47.7 10.5,54 Z" id="Path" fill="#FDD05B"></path>
            </g>
            <g id="Button_2_" transform="translate(320.000000, 164.000000)">
                <path d="M51.1,0.6 C5.1,0.6 6.4,9.2 3.3,39.5 C0.3,69.7 -8.9,90.9 36.7,93.9 C61,95.5 77.4,89 80.8,70.4 C82.4,61.6 79.2,62.5 79.2,45.6 C79.3,9.2 90.6,0.6 51.1,0.6 Z" id="Path" fill="#FFFFFF"></path>
                <path d="M55.8,0.5 C14.8,0.5 17.9,5.9 15.2,33 C12.5,60.1 4.4,79 45,81.7 C85.6,84.4 82.9,70.9 82.9,38.4 C82.9,5.9 91,0.5 55.8,0.5 Z" id="Path" fill="#5C68FF"></path>
                <path d="M62.8,54.1 C54.9,42.1 47,30.1 39.1,18.1 C37.2,15.2 32.5,17.9 34.4,20.8 C42.3,32.8 50.2,44.8 58.1,56.8 C60,59.7 64.7,57 62.8,54.1 Z" id="Path" fill="#F26AAC"></path>
                <path d="M66.2,14.3 C51.1,25.7 38.7,39.6 29.1,55.9 C27.3,58.9 32,61.6 33.8,58.6 C42.8,43.1 54.6,29.7 68.9,18.9 C71.7,16.9 69,12.2 66.2,14.3 Z" id="Path" fill="#F26AAC"></path>
            </g>
            <g id="Book_1" transform="translate(415.000000, 77.000000)">
                <path d="M39.4,27 C31.3,29.7 27.8,34.9 23.2,35.1 C0.5,36.4 1.1,29.7 1.1,29.7 L1.5,175.2 C1.5,177.4 2.9,179.4 5,180.3 C11.3,182.8 25.4,186.7 39.5,178.7 C58.5,167.9 63.9,170.6 63.9,140.8 C63.9,111 66.6,21.7 61.2,8.1 L39.4,27 Z" id="Path" fill="#FF1A36"></path>
                <path d="M24.9,1.7 C15.8,9.6 7.7,18.4 0.7,28.1 C-1.4,30.9 3.3,33.6 5.4,30.8 C12.2,21.4 20,13 28.8,5.5 C31.4,3.3 27.6,-0.5 24.9,1.7 Z" id="Path" fill="#FFFFFF"></path>
                <path d="M39.2,1.6 C32.6,7.6 26,13.6 19.4,19.7 C16.8,22.1 20.7,25.9 23.2,23.5 C29.8,17.5 36.4,11.5 43,5.4 C45.6,3 41.8,-0.8 39.2,1.6 Z" id="Path" fill="#FFFFFF"></path>
                <path d="M50.1,2.5 C45.9,6.1 41.7,9.7 37.5,13.3 C34.9,15.6 38.7,19.4 41.3,17.1 C45.5,13.5 49.7,9.9 53.9,6.3 C56.5,4 52.7,0.2 50.1,2.5 Z" id="Path" fill="#FFFFFF"></path>
                <path d="M38.1,25.3 C28,32.3 15.6,33.4 4.5,27.8 C1.4,26.2 -1.3,30.9 1.8,32.5 C14.4,38.9 29.1,38.1 40.8,30 C43.6,28 40.9,23.3 38.1,25.3 Z" id="Path" fill="#FFFFFF"></path>
                <path d="M41.4,44.1 C41.4,40.6 36,40.6 36,44.1 L36.2,175 C36.2,178.5 41.6,178.5 41.6,175 L41.4,44.1 Z" id="Path" fill="#000000"></path>
            </g>
            <g id="Enter" transform="translate(261.000000, 307.000000)">
                <path d="M38.1,1.9 C-4.2,-0.9 1.1,-2.6 1.1,62.4 C1.1,127.4 -11.5,145.4 49.8,144.5 C111.2,143.6 103.1,139.1 99.4,106.6 C95.8,74.1 98.5,72.3 72.3,71.4 C46.1,70.5 52.2,77.8 53.3,38 C54.3,6.4 51.6,2.8 38.1,1.9 Z" id="Path" fill="#5C68FF"></path>
                <path d="M55.3,1.9 C13,-0.9 18.3,-2.6 18.3,62.4 C18.3,127.4 5.7,145.4 67,144.5 C128.4,143.6 120.3,139.1 116.6,106.6 C112.9,74.1 115.7,72.3 89.5,71.4 C63.3,70.5 69.4,77.8 70.5,38 C71.5,6.4 68.8,2.8 55.3,1.9 Z" id="Path" fill="#B3BFE2"></path>
                <path d="M85.7,103.2 C73.5,100.7 49.8,108.4 50.3,91.6 C50.6,78.7 51,63.5 51.4,50.6 C51.5,47.1 46.1,47.1 46,50.6 C45.7,60.8 45.4,71 45.2,81.2 C45,87.8 43.5,96 47.4,101.9 C55.5,114.1 72.9,106.1 84.4,108.4 C87.7,109.1 89.1,103.9 85.7,103.2 Z" id="Path" fill="#000000"></path>
                <path d="M61.4,61.8 C58.7,55.5 56,49.2 53.3,42.9 C52.4,40.8 49.7,41.5 48.6,42.9 C43.5,49.6 38.4,56.3 33.3,62.9 C31.2,65.7 35.9,68.4 38,65.6 C42.1,60.2 46.2,54.8 50.3,49.5 C52.5,54.5 54.6,59.5 56.8,64.5 C58.1,67.7 62.7,65 61.4,61.8 Z" id="Path" fill="#000000"></path>
            </g>
            <g id="Options_1_" transform="translate(489.000000, 157.000000)">
                <path d="M10.6,1.1 C-5.6,3.8 -0.2,25.5 13.3,22.8 C26.8,20.1 21.6,-0.7 10.6,1.1 Z" id="Path" fill="#FDD05B"></path>
                <path d="M12.7,36.3 C-3.5,33.1 -3.5,58 10,58 C23.6,58 26.3,39.1 12.7,36.3 Z" id="Path" fill="#5C68FF"></path>
                <path d="M10.4,71.5 C-2.6,71.5 -2.6,92.3 10.4,92.3 C23.4,92.3 26,71.5 10.4,71.5 Z" id="Path" fill="#5C68FF"></path>
            </g>
            <g id="Mouse_2_" transform="translate(163.000000, 400.000000)">
                <path d="M57.4,2.9 C23.6,0.5 9.7,22.7 3.1,54.3 C2.8,55.7 3.8,57 5.2,57.1 C17.5,58.3 70.6,63.1 95,57.3 C96.1,57 96.8,56 96.8,54.9 C96.2,45.7 92.1,5.4 57.4,2.9 Z" id="Path" fill="#FFFFFF"></path>
                <path d="M60.4,62.8 C38,62.8 14.3,60.7 4.8,59.8 C3.4,59.7 2.1,58.9 1.2,57.8 C0.4,56.6 -5.43731726e-14,55.2 0.3,53.8 C5.4,29.5 16.8,-2.5 57.5,0.3 C94.8,2.9 98.8,46.2 99.3,54.9 C99.4,57.3 97.8,59.5 95.5,60 C86.4,62.1 73.6,62.8 60.4,62.8 Z M5.8,54.5 C17.3,55.6 69.9,60.3 93.9,54.8 C93.3,43.4 88.8,7.9 57.2,5.6 L57.2,5.6 C29.2,3.7 13.3,18.7 5.8,54.5 Z" id="Shape" fill="#FFFFFF"></path>
                <path d="M59.1,2.7 C59.1,2.7 59,2.7 59.1,2.7 C58.4,21.1 57.7,39.5 56.9,57.8 C56.8,61.3 62.2,61.3 62.3,57.8 C63,39.9 63.7,22.1 64.4,4.2 C62.6,3.8 60.8,3.3 59.1,2.7 Z" id="Path" fill="#000000"></path>
                <path d="M62,9.8 C61.6,9.6 61.2,9.4 60.8,9.4 C60.7,11.4 60.6,13.3 60.5,15.3 C74.6,24.4 82.5,40 81.5,56.9 C81.3,60.4 86.7,60.4 86.9,56.9 C88.1,37.6 78.5,19.7 62,9.8 Z" id="Path" fill="#000000"></path>
                <path d="M164.5,119.6 C163,119.6 161.8,118.4 161.8,117 C161.8,116.8 161.3,98 161.3,89 C161.3,87.8 160.9,86.8 160.1,86 C155.6,81.8 140.7,82.6 128.8,83.3 C121.6,83.7 114.9,84.1 110.1,83.5 C100.9,82.4 97.4,78 97.1,74.3 C96.9,71.2 97.7,68.6 99.7,66.5 C103.9,62.1 112.6,60.2 128.1,60.5 C133.3,60.6 139.3,60.9 145.7,61.2 C160.4,61.9 187.6,63.1 190.8,59.7 C190.9,58.1 190.6,57.5 190.3,57.2 C187.7,54.4 173.9,54.1 146.2,53.6 C133.2,53.3 117,53 96.4,52.4 C94.9,52.4 93.7,51.1 93.8,49.6 C93.8,48.1 95,47 96.6,47 C117.2,47.6 133.4,48 146.4,48.2 C180,48.8 190.2,49 194.3,53.5 C196.3,55.6 196.4,58.4 196.3,60.2 C195.8,68 180.5,68.1 145.6,66.6 C139.3,66.3 133.3,66 128.1,65.9 C114.9,65.7 106.7,67.1 103.8,70.2 C102.9,71.2 102.5,72.3 102.6,73.8 C102.7,75.1 105,77.4 110.9,78.1 C115.2,78.6 121.8,78.2 128.7,77.8 C143,77 157.9,76.1 164.1,82 C166,83.8 167,86.2 167,88.9 C167,97.8 167.4,116.6 167.5,116.8 C167.3,118.4 166.1,119.6 164.5,119.6 C164.6,119.6 164.6,119.6 164.5,119.6 Z" id="Path" fill="#FFFFFF"></path>
            </g>
            <g id="Arrow" transform="translate(367.000000, 362.000000)">
                <path d="M96.7,89.1 C96.7,93.2 90.3,101.4 85.1,101.4 C81,101.4 72.7,93.6 54,74.4 C37.9,89.8 22.7,102.8 20.9,101.4 C16.8,98.3 -0.4,10.1 4.4,3.7 C7.5,-0.4 91.8,23.2 93.8,29.4 C94.7,32 82.8,45.5 68.3,60.2 C82,73.3 96.7,86.5 96.7,89.1 Z" id="Path" fill="#FFFFFF"></path>
                <path d="M21,104.3 C20.2,104.3 19.7,103.9 19.3,103.6 C15.3,100.6 8.6,65.1 6.7,54.3 C1.1,23.3 -0.4,5.7 2.3,2.1 C3.5,0.5 5.5,-1.13686838e-13 13.4,1.2 C28.2,3.6 93.8,20.6 96.5,28.5 C97.1,30.3 98.2,33.6 72.3,60.1 C74.2,61.9 76.1,63.7 77.9,65.4 C95.1,81.6 99.4,86.1 99.4,89 C99.4,94.3 92.1,104.1 85.1,104.1 C80.1,104.1 73.2,97.9 53.9,78.2 C30.7,100.4 23.8,104.3 21,104.3 Z M54,71.7 C54.7,71.7 55.4,72 55.9,72.5 C66.7,83.6 81.4,98.7 85.1,98.7 C88.5,98.7 93.6,92.3 93.9,89.4 C92.5,86.8 82.3,77.2 74.1,69.4 C71.6,67 69,64.6 66.5,62.2 C66,61.7 65.7,61 65.7,60.3 C65.7,59.6 66,58.9 66.5,58.4 C83.4,41.2 89.7,33 91,30.3 C83,24.4 16.5,5.3 6.4,6 C3.8,15.8 17.4,86.7 22.2,98.3 C25.7,96.2 35.4,88.5 52.2,72.5 C52.6,72 53.3,71.7 54,71.7 Z" id="Shape" fill="#000000"></path>
            </g>
            <g id="Glow_1_" fill="#FDD05B">
                <path d="M389.3,104.8 C379.8,105.1 371.3,101.1 370.5,90.6 C370.2,85.7 370.4,81.3 369.5,76.5 C369,73.8 364.9,74 364.3,76.5 C361.4,88.3 357.6,102.7 343,104.3 C339.7,104.7 339.6,109.6 342.7,109.7 C342.9,109.8 343,109.9 343.2,110 C354.6,114.5 361.6,123.9 362.9,135.5 C362.9,136.7 363,137.9 363.2,139.1 C363.6,142.4 368.7,142.7 368.6,139.1 C368.6,137.8 368.5,136.6 368.4,135.4 C368.2,122.2 376.4,112.4 390.1,110 C393,109.6 392.3,104.7 389.3,104.8 Z M365,123.4 C361.9,116.9 357,111.6 350.6,107.8 C357.6,104.8 362,98.9 365.1,91.8 C365.4,96.7 366.4,101.5 369.8,105.1 C371.8,107.2 374.3,108.5 377,109.2 C371.4,112.6 367.3,117.5 365,123.4 Z" id="Shape"></path>
                <path d="M295.1,23.8 C291.9,22.4 288.7,21 285.4,19.5 C283.7,17.2 282.7,14.6 282.4,11.8 C281.7,8.6 281.5,5.5 281.4,2.2 C281.2,-1 276.5,-0.3 276.5,2.8 C276.6,13.6 270.6,22.4 260.7,26.7 C258.1,27.8 259.3,31.6 261.7,31.4 C262,31.6 262.2,31.7 262.6,31.8 C270.7,33.5 275.6,39.8 275.9,47.3 C275.7,48.9 275.5,50.5 275.5,52.2 C275.5,52.2 275.5,52.2 275.5,52.2 L275.5,52.2 C275.5,52.4 275.5,52.6 275.5,52.9 C275.5,55.8 279.9,55.6 280.4,53 C280.8,51 280.9,49.1 280.9,47.2 C282.4,38.7 287.9,32 296.3,28.5 C299,27.4 297.9,23.6 295.1,23.8 Z M278.8,38.3 C276.6,33.9 272.9,30.4 267.9,28.3 C272.7,25.1 276.4,20.8 278.7,15.7 C280.4,20.9 283.3,25.4 288.1,27.5 C284,30.3 280.9,34 278.8,38.3 Z" id="Shape"></path>
                <path d="M50.1,372.7 C49.4,372.9 48.7,373.2 48,373.4 C31.3,378.2 32,350.8 30.1,340.6 C29.6,338.1 25.3,338 24.9,340.6 C23,354 20.1,371.8 2.9,373.4 C-0.5,373.7 -0.6,379.1 2.9,378.8 C2.9,378.8 2.9,378.8 3,378.8 C3.4,379.3 4.1,379.7 5,379.7 C18.9,380 22.8,392.5 23.8,404.3 C23.5,407.4 23.6,410.7 24.1,414 C24.1,414 24.1,414.1 24.1,414.1 C24.1,414.1 24.1,414.1 24.1,414.1 C24.1,414.3 24.1,414.6 24.2,414.8 C24.7,417.9 29.5,417 29.5,414.1 C29.5,410.9 29.4,407.5 29.1,404.1 C30.3,392.5 37.5,383.2 48.9,378.8 C49.8,378.5 50.7,378.3 51.6,377.9 C54.6,376.6 53.5,371.7 50.1,372.7 Z M26.7,392.4 C24.4,384.9 20.2,378.7 12.9,375.9 C20.3,371.9 24.5,364.4 27.1,356 C28.9,365.2 31.8,374.9 38.4,378.3 C33.2,382 29.3,386.8 26.7,392.4 Z" id="Shape"></path>
                <path d="M267,385.4 C255.9,387.7 253.1,378.3 253.4,369.5 C253.5,366.5 248.8,365.8 248.1,368.8 C246,378 239.2,384.3 229.6,385.2 C226.3,385.5 226.2,390.6 229.3,390.6 C229.7,391.1 230.4,391.5 231.3,391.5 C243.4,391 247.1,401.7 247.2,411.6 C247.1,412.7 247.1,413.9 247.1,415.1 C247.2,418.6 252.2,418.5 252.5,415.1 C252.2,404.2 258.2,394.8 268.4,390.8 C271.6,389.4 270.5,384.7 267,385.4 Z M250.6,399.7 C248.7,394.3 245.2,389.8 240.1,387.5 C243.6,385.7 246.6,383.1 249,379.9 C250.4,385.2 253.3,389 258.2,390.5 C255.1,393.1 252.5,396.2 250.6,399.7 Z" id="Shape"></path>
            </g>
            <g id="Computer" transform="translate(76.000000, 87.000000)">
                <path d="M192.6,175.4 C173.1,175.4 148.3,173.4 120,171.2 L106.8,170.2 L107.2,164.8 L120.4,165.8 C173.6,170 228.6,174.4 231.2,160.1 C234.2,143.7 234,96 233.9,57.8 C233.9,50.2 233.9,42.9 233.9,36 L233.9,34.9 C233.9,21.4 233.9,13.3 230.1,9.6 C225,4.7 210.7,5.1 182.2,5.9 C169.3,6.3 153.3,6.7 133.5,6.8 L133.5,1.4 C153.2,1.3 169.2,0.8 182.1,0.5 C214,-0.4 227.2,-0.8 233.9,5.7 C239.3,11 239.3,19.5 239.3,34.9 L239.3,36 C239.3,42.8 239.3,50.2 239.3,57.7 C239.4,98.2 239.6,144.1 236.5,161 C234.6,171.9 218.4,175.4 192.6,175.4 Z" id="Path" fill="#FFFFFF"></path>
                <path d="M133.6,4.1 C38.5,9.1 46.2,4.1 42.4,83.9 C38.6,163.7 19.6,159.9 107,167.5 C194.4,175.1 202,171.3 198.2,91.5 C194.3,11.7 205.7,0.3 133.6,4.1 Z" id="Path" fill="#FFFFFF"></path>
                <path d="M151.9,172.8 C139.9,172.8 125.1,171.7 106.7,170.1 L100,169.5 C62.4,166.3 46.8,164.9 39.6,156.3 C33.7,149.2 34.8,138.5 36.8,119.1 C37.7,109.7 38.9,98 39.6,83.7 C39.9,77.8 40.1,72.4 40.3,67.4 C42.7,7 44.2,5.8 118.6,2.1 C123.2,1.9 128.1,1.6 133.3,1.4 L133.3,1.4 C163.1,-0.2 179.9,0.6 189.2,9.2 C198.7,18 199.1,33.6 199.8,62 C200,70.6 200.2,80.3 200.8,91.4 C202.7,131 201.6,151.9 190.1,162.9 C182.5,170.1 170.7,172.8 151.9,172.8 Z M133.7,6.8 C128.5,7.1 123.6,7.3 118.9,7.5 C82.9,9.3 64.8,10.2 56,17.5 C47.5,24.6 46.9,39 45.7,67.6 C45.5,72.6 45.3,78 45,83.9 C44.3,98.3 43.1,110.1 42.2,119.6 C40.4,137.6 39.4,147.4 43.8,152.8 C49.5,159.7 65.5,161.1 100.4,164.1 L107.1,164.7 C152.7,168.7 175.4,169.4 186.3,158.9 C196.2,149.3 197.1,129.6 195.3,91.6 C194.8,80.5 194.5,70.7 194.3,62.1 C193.7,35.2 193.3,20.4 185.4,13.2 C177.8,5.9 161.4,5.3 133.7,6.8 L133.7,6.8 Z" id="Shape" fill="#FFFFFF"></path>
                <path d="M129.2,27.8 C61.4,31.4 66.9,27.8 64.2,84.7 C61.5,141.6 48,138.9 110.2,144.3 C172.5,149.7 177.9,147 175.2,90.1 C172.6,33.2 180.7,25.1 129.2,27.8 Z" id="Path" fill="#5C68FF"></path>
                <path d="M187,131.2 C181.8,131.2 181.8,139.3 187,139.3 C192.2,139.3 192.2,131.2 187,131.2 Z" id="Path" fill="#8C94BF"></path>
                <path d="M187,115.4 C180,115.4 180,126.2 187,126.2 C194,126.2 194,115.4 187,115.4 Z" id="Path" fill="#8C94BF"></path>
                <path d="M218.6,58.5 C215.7,58.6 213.2,60.9 213.2,63.9 L213.2,64.8 C213.2,67.6 215.7,70.3 218.6,70.2 C221.5,70.1 224,67.8 224,64.8 L224,63.9 C224,61.1 221.5,58.4 218.6,58.5 Z" id="Path" fill="#8C94BF"></path>
                <path d="M218.6,84.7 C210.5,84.7 210.5,87.4 210.5,122.6 C210.5,157.8 207.8,157.8 215.9,157.8 C224,157.8 224,152.4 224,119.9 C224,87.4 226.7,84.7 218.6,84.7 Z" id="Path" fill="#8C94BF"></path>
                <path d="M3.8,320.3 C2.3,320.3 1.1,319.1 1.1,317.6 C1.1,316.5 0.2,210.7 0.2,176.8 C0.2,145.7 4.6,144.5 25.5,143.9 C28.6,143.8 32.1,143.7 36.1,143.4 C37.6,143.3 38.9,144.4 39,145.9 C39.1,147.4 38,148.7 36.5,148.8 C32.4,149.1 28.9,149.2 25.7,149.3 C6.8,149.9 5.6,149.9 5.6,176.8 C5.6,210.7 6.5,316.5 6.5,317.6 C6.5,319 5.3,320.3 3.8,320.3 C3.8,320.3 3.8,320.3 3.8,320.3 Z" id="Path" fill="#FFFFFF"></path>
                <path d="M159,59.5 C152.6,46.5 137.9,39.9 123.9,43.2 C120.5,44 121.9,49.2 125.3,48.4 C137.1,45.6 149,51.4 154.3,62.2 C155.9,65.3 160.6,62.6 159,59.5 Z" id="Path" fill="#FFFFFF"></path>
            </g>
            <g id="Hand_1_1_" transform="translate(17.000000, 37.000000)">
                <path d="M143.1,36.4 C151.2,38.8 161.6,41.8 171.6,43.9 C172,43.4 172.6,43.1 173.4,43.2 C183.2,44.2 192.5,38.4 200.8,32.6 C193.9,29.2 179.6,25.9 158.5,12.9 C124.5,-8 75.3,1.4 6.1,11.8 C2.2,12.4 -0.4,16.3 0.7,20.1 L16.2,75.4 C17.1,78.5 20,80.5 23.2,80.2 C76.5,76.1 105.2,50.9 131.4,56.2 C158.5,61.6 163.9,64.3 166.6,53.5 C168.2,47 154.5,40.6 143.1,36.4 Z" id="Path" fill="#FF1A36"></path>
                <path d="M151.8,36.4 C144.3,32.8 136.7,29.3 129.2,25.7 C126.1,24.2 123.3,28.9 126.5,30.4 C134,34 141.6,37.5 149.1,41.1 C152.2,42.6 155,37.9 151.8,36.4 Z" id="Path" fill="#5C68FF"></path>
                <path d="M155.7,44.2 C149.6,43.2 145.4,48.9 143.4,53.8 C142.1,57 147.3,58.4 148.6,55.2 C149.5,53 151.2,50.2 153.7,49.6 C155.5,49.2 158.3,51 156.9,52.9 C154.9,55.8 159.6,58.5 161.6,55.6 C164.9,51.1 160.7,45 155.7,44.2 Z" id="Path" fill="#5C68FF"></path>
                <path d="M202.4,26.1 C194,35 183.3,40.6 171.1,41.9 C167.7,42.3 167.6,47.7 171.1,47.3 C184.7,45.8 196.9,39.9 206.3,29.9 C208.6,27.4 204.8,23.6 202.4,26.1 Z" id="Path" fill="#000000"></path>
            </g>
        </g>
    </g>
</svg>