<?xml version="1.0" encoding="UTF-8"?>
<svg width="560px" height="498px" viewBox="0 0 560 498" version="1.1" xmlns="http://www.w3.org/2000/svg" xmlns:xlink="http://www.w3.org/1999/xlink">
    <title>19</title>
    <g id="Page-1" stroke="none" stroke-width="1" fill="none" fill-rule="evenodd">
        <g id="19" fill-rule="nonzero">
            <g id="Screen" transform="translate(94.000000, 60.000000)">
                <path d="M176.4,287.4 C154.3,287.2 135.2,287.4 118.6,287.6 C116.9,287.6 115.3,287.7 113.7,287.7 C83.4,288.2 62,288.6 46.8,286 C45.2,285.7 43.6,285.4 42.1,285 C7.7,276.9 9.4,248.3 5.8,154.8 C-0.3,-2.7 -32.9,-2.9 194.6,2.2 C311.7,4.8 323.5,16.9 328.6,140 C334.8,289.3 338.5,289.2 176.4,287.4 Z" id="Path" fill="#5C68FF"></path>
                <path d="M203.8,35.7 C158.3,36.3 112.8,36.8 67.4,37.4 C63.8,37.4 63.8,43.1 67.4,43.1 C112.9,42.5 158.4,42 203.8,41.4 C207.4,41.3 207.4,35.6 203.8,35.7 Z" id="Path" fill="#FFFFFF"></path>
                <path d="M216.5,86.8 C174.6,87.2 132.6,87.6 90.7,88 C87.1,88 87.1,93.7 90.7,93.7 C132.6,93.3 174.6,92.9 216.5,92.5 C220.1,92.5 220.1,86.8 216.5,86.8 Z" id="Path" fill="#FFFFFF"></path>
                <path d="M90,111.4 C82.3,106.2 74.7,101 67,95.8 C74,88.5 80.2,80.6 85.5,71.9 C87.4,68.8 82.5,65.9 80.6,69 C75,78.3 68.4,86.6 60.7,94.2 C59.3,95.5 59.8,97.6 61.3,98.6 C69.9,104.5 78.6,110.3 87.2,116.2 C90.2,118.3 93,113.4 90,111.4 Z" id="Path" fill="#FFFFFF"></path>
                <path d="M136.6,143.8 C117.3,144 98,144.2 78.6,144.5 C75,144.5 75,150.2 78.6,150.2 C97.9,150 117.2,149.8 136.6,149.5 C140.2,149.4 140.3,143.8 136.6,143.8 Z" id="Path" fill="#FFFFFF"></path>
                <path d="M197.4,141.2 C190.6,141.1 183.7,141 176.9,140.8 C173.3,140.7 173.3,146.4 176.9,146.5 C183.7,146.6 190.6,146.7 197.4,146.9 C201.1,147 201.1,141.3 197.4,141.2 Z" id="Path" fill="#FFFFFF"></path>
                <path d="M166.6,121.6 C159.8,136 153,150.4 146.2,164.8 C144.7,168.1 149.5,170.9 151.1,167.7 C157.9,153.3 164.7,138.9 171.5,124.5 C173,121.2 168.1,118.4 166.6,121.6 Z" id="Path" fill="#FFFFFF"></path>
                <path d="M239.5,164.5 C223.3,155.8 222,135.3 236.4,124.1 C239.3,121.9 235.2,117.9 232.4,120.1 C215.1,133.5 217.5,159.1 236.6,169.4 C239.9,171.1 242.7,166.2 239.5,164.5 Z" id="Path" fill="#FFFFFF"></path>
                <path d="M258.9,140.2 C253.9,140 249,139.8 244,139.6 C240.4,139.5 240.4,145.1 244,145.3 C249,145.5 253.9,145.7 258.9,145.9 C262.5,146 262.5,140.4 258.9,140.2 Z" id="Path" fill="#FFFFFF"></path>
                <path d="M264.6,202.7 C227.1,202.7 189.7,202.7 152.2,202.6 C148.6,202.6 148.6,208.3 152.2,208.3 C189.7,208.3 227.1,208.3 264.6,208.4 C268.2,208.4 268.2,202.7 264.6,202.7 Z" id="Path" fill="#FFFFFF"></path>
                <path d="M241.2,244.6 C204.9,243.6 168.6,244.4 132.3,246.8 C128.7,247 128.7,252.7 132.3,252.5 C168.6,250.1 204.9,249.3 241.2,250.3 C244.9,250.4 244.9,244.7 241.2,244.6 Z" id="Path" fill="#FFFFFF"></path>
                <path d="M286.5,242.1 C278.3,235.8 270.1,229.6 261.9,223.3 C259,221.1 256.2,226 259,228.2 C266.2,233.7 273.3,239.1 280.5,244.6 C271.8,251.4 263.1,258.2 254.4,265 C251.5,267.2 255.6,271.2 258.4,269 C268,261.5 277.5,254.1 287.1,246.6 C288.6,245.3 287.7,243.1 286.5,242.1 Z" id="Path" fill="#FFFFFF"></path>
                <path d="M131.7,187.5 L130.3,187.5 C126.7,187.5 126.7,193.2 130.3,193.2 L131.7,193.2 C135.3,193.1 135.3,187.5 131.7,187.5 Z" id="Path" fill="#FFFFFF"></path>
                <path d="M131.7,210.1 L130.3,210.1 C126.7,210.1 126.7,215.8 130.3,215.8 L131.7,215.8 C135.3,215.7 135.3,210.1 131.7,210.1 Z" id="Path" fill="#FFFFFF"></path>
            </g>
            <g id="Flower" transform="translate(132.000000, 223.000000)">
                <path d="M43,83.7 C39.2,68.9 35.4,54 31.5,39.2 C30.6,35.7 25.1,37.2 26,40.7 C29.8,55.5 33.6,70.4 37.5,85.2 C38.4,88.7 43.9,87.2 43,83.7 Z" id="Path" fill="#FDD05B"></path>
                <path d="M56.8,54.2 C49.8,51.9 45.7,60.9 43.4,65.8 C38.6,75.7 36.3,86.3 36,97.3 C35.9,100.3 39.8,100.8 41.1,98.8 C40.5,101.4 44.6,103.4 46.4,100.7 C51.2,93.6 72.1,59.1 56.8,54.2 Z" id="Path" fill="#FDD05B"></path>
                <path d="M53.5,34 C50.7,29.5 46.2,27.3 41.3,26.1 C47.8,20.4 53.1,10.8 46.3,4.2 C39.2,-2.8 32.8,3.3 28.1,10.1 C27.7,8 26.8,6.1 25.2,4.3 C22.1,0.9 17.4,-0.5 13.3,1.9 C3.2,7.8 8.7,20.2 14.6,28.5 C5.8,34.6 -4.6,45.7 2.7,54.1 C10.3,62.8 21.2,52.2 26.5,43.7 C32.4,52.8 44,59.5 52.8,49.3 C56.7,44.9 56.5,38.8 53.5,34 Z" id="Path" fill="#FF1A36"></path>
                <path d="M80.6,124.6 C78.9,124.6 77.3,124.7 75.7,124.7 C45.4,125.2 24,125.6 8.8,123 L8.8,78.4 C71.7,76.9 80.2,73.2 83,77.7 C85.4,81.3 83.4,98.2 80.6,124.6 Z" id="Path" fill="#FFFFFF"></path>
                <path d="M29.3,21.6 C24.8,21.6 24.7,28.7 29.3,28.7 C33.9,28.7 33.9,21.6 29.3,21.6 Z" id="Path" fill="#FDD05B"></path>
            </g>
            <g id="Curtains" transform="translate(66.000000, 0.000000)">
                <path d="M248.2,2.9 C248.1,-0.7 242.4,-0.7 242.5,2.9 C242.7,11.6 243,20.3 243.2,29.1 C243.3,32.7 249,32.7 248.9,29.1 C248.6,20.3 248.4,11.6 248.2,2.9 Z" id="Path" fill="#F26AAC"></path>
                <path d="M194.9,2.9 C194.8,-0.7 189.1,-0.7 189.2,2.9 C189.4,11.6 189.7,20.3 189.9,29.1 C190,32.7 195.7,32.7 195.6,29.1 C195.4,20.3 195.1,11.6 194.9,2.9 Z" id="Path" fill="#F26AAC"></path>
                <path d="M277.9,2.9 C277.8,-0.7 272.1,-0.7 272.2,2.9 C272.4,11.6 272.7,20.3 272.9,29.1 C273,32.7 278.7,32.7 278.6,29.1 C278.3,20.3 278.1,11.6 277.9,2.9 Z" id="Path" fill="#F26AAC"></path>
                <path d="M323.6,2.9 C323.5,-0.7 317.8,-0.7 317.9,2.9 C318.1,11.6 318.4,20.3 318.6,29.1 C318.7,32.7 324.4,32.7 324.3,29.1 C324,20.3 323.8,11.6 323.6,2.9 Z" id="Path" fill="#F26AAC"></path>
                <path d="M17.9,15 C12.8,15.3 7.8,15.5 2.7,15.7 C-0.9,15.9 -0.9,21.6 2.7,21.4 C8,21.1 13.2,20.9 18.5,20.6 C18.3,18.8 18.1,16.9 17.9,15 Z" id="Path" fill="#F26AAC"></path>
                <path d="M60.6,13.6 C60.4,15.5 60.3,17.4 60.3,19.3 C104.8,17.6 149.2,16.8 193.7,17.1 C193.7,15.2 193.8,13.3 193.8,11.4 C149.4,11.2 105,11.9 60.6,13.6 Z" id="Path" fill="#F26AAC"></path>
                <path d="M336.4,15.4 C331.9,15.2 327.3,15 322.8,14.8 C322.9,15.3 323,15.8 323,16.3 C323,17.7 323.1,19.1 323.2,20.5 C327.6,20.7 332.1,20.9 336.5,21.1 C340,21.3 340,15.6 336.4,15.4 Z" id="Path" fill="#F26AAC"></path>
                <path d="M41.9,2.9 C41.8,-0.7 36.1,-0.7 36.2,2.9 C36.4,11.6 36.7,20.3 36.9,29.1 C37,32.7 42.7,32.7 42.6,29.1 C42.3,20.3 42.1,11.6 41.9,2.9 Z" id="Path" fill="#F26AAC"></path>
                <path d="M21.7,2.9 C21.6,-0.7 15.9,-0.7 16,2.9 C16.2,11.6 16.5,20.3 16.7,29.1 C16.8,32.7 22.5,32.7 22.4,29.1 C22.2,20.3 21.9,11.6 21.7,2.9 Z" id="Path" fill="#F26AAC"></path>
                <path d="M62,2.9 C61.9,-0.7 56.2,-0.7 56.3,2.9 C56.5,11.6 56.8,20.3 57,29.1 C57.1,32.7 62.8,32.7 62.7,29.1 C62.5,20.3 62.2,11.6 62,2.9 Z" id="Path" fill="#F26AAC"></path>
                <path d="M422.6,369.8 C419.1,354.2 419.1,346.5 398.6,256.7 C378.1,166.9 343.8,73.3 338.2,57.1 C334,44.8 325.4,22.9 317.3,27.6 C310.4,31.6 305.7,37.1 297.4,35.9 C287.5,34.5 279.2,21.2 271.4,28.6 C264.9,34.8 256,34 249.5,30.2 C247.9,29.3 246.6,27.9 245.4,26.4 C245.3,26.4 245.2,26.4 245,26.4 C244.5,27.3 243.3,28.6 242.8,29 C236.9,34 223.2,35.1 215.7,34.7 C207.6,34.3 200.2,28.7 192.4,27.3 C190.7,28.7 190.9,31 192.2,34.7 C197.9,51 258.7,161.2 309.6,194.5 C336,251.1 345.2,272.3 349.4,283.6 C353.6,294.9 347.8,319.7 345.6,353.6 C343.5,387.5 332.9,398.1 371.1,388.2 C409.2,378.3 426.2,385.3 422.6,369.8 Z" id="Path" fill="#FFFFFF"></path>
                <path d="M351.3,394.3 C347.5,394.3 345,393.5 343.2,391.8 C339,388.1 339.9,381.1 341.2,370.7 C341.9,365.7 342.6,360 343,353.3 C343.8,341.1 345,330.1 346.1,320.4 C348,304 349.4,291 346.9,284.4 C343.4,275.1 336,257.3 307.5,196.2 C256,162.1 195.6,52.5 189.7,35.5 C188.9,33.1 187.2,28.2 190.7,25.2 C191.3,24.7 192.1,24.5 192.8,24.6 C196.6,25.3 200.1,26.8 203.6,28.3 C207.8,30.1 211.7,31.8 215.8,32 C222.8,32.4 235.8,31.3 241,26.9 C241.4,26.5 242.4,25.5 242.7,25 C243.2,24.2 244,23.7 245,23.7 C245.8,23.7 246.8,24.1 247.3,24.7 C248.2,25.9 249.4,27.1 250.7,27.9 C256,31 263.7,32.3 269.5,26.7 C275.7,20.8 282.4,25.1 287.8,28.6 C291,30.7 294.4,32.9 297.6,33.3 C302.8,34.1 306.3,31.6 310.8,28.6 C312.4,27.5 314,26.4 315.8,25.4 C317.8,24.3 319.9,24.1 322,24.9 C328,27.1 333.8,37.1 340.5,56.3 C341,57.8 341.8,60 342.8,62.8 C352.6,90.5 382.4,174.6 401,256.1 C415.5,319.8 419.8,342.2 422.3,355.5 C423.3,360.9 424,364.7 425.1,369.2 C426,373.3 425.7,376.3 424.1,378.6 C421.2,382.8 414.9,383.5 404.5,384.8 C396.4,385.8 385.3,387.1 371.6,390.7 C362.3,393.1 355.8,394.3 351.3,394.3 Z M193.8,30.2 C193.8,31 194.1,32.2 194.6,33.8 C200.2,49.9 261.3,159.8 310.9,192.2 C311.3,192.5 311.6,192.8 311.8,193.3 C340.6,255.1 348.2,273.1 351.7,282.6 C354.6,290.4 353.2,303.3 351.2,321 C350.1,330.6 348.9,341.5 348.1,353.6 C347.7,360.5 346.9,366.5 346.3,371.4 C345.2,379.9 344.4,386 346.6,387.9 C349.6,390.5 360.9,388 370.4,385.6 C384.5,382 395.8,380.6 404,379.6 C412.3,378.6 418.3,377.8 419.9,375.6 C420.6,374.6 420.7,372.9 420.1,370.4 L420.1,370.4 C419.1,365.8 418.3,361.9 417.3,356.5 C414.8,343.2 410.6,320.9 396.1,257.3 C377.6,176.1 347.9,92.1 338.1,64.5 C337.1,61.7 336.3,59.5 335.8,57.9 C328,35.5 322.8,30.6 320.4,29.7 C319.7,29.5 319.2,29.5 318.6,29.8 C317,30.7 315.4,31.8 313.9,32.8 C309.2,36.1 304.3,39.4 297,38.4 C292.6,37.8 288.6,35.2 285.1,32.9 C279,28.9 276.2,27.6 273.3,30.4 C265.4,38 254.8,36.2 248.2,32.3 C247.1,31.7 246.2,30.9 245.3,30.1 C245,30.4 244.7,30.7 244.5,30.9 C237.5,36.8 222.5,37.6 215.6,37.2 C210.6,36.9 206.1,35 201.6,33.1 C198.9,32 196.4,30.9 193.8,30.2 Z" id="Shape" fill="#FFFFFF"></path>
                <path d="M322.4,188.7 C304.4,145.4 286.4,102 268.5,58.7 C267.1,55.4 261.7,56.8 263,60.2 C281,103.5 299,146.9 316.9,190.2 C318.3,193.5 323.8,192 322.4,188.7 Z" id="Path" fill="#B3BFE2"></path>
                <path d="M346,188.8 C340.6,169.4 335.1,150 329.7,130.6 C328.7,127.1 323.3,128.6 324.2,132.1 C329.6,151.5 335.1,170.9 340.5,190.3 C341.5,193.8 346.9,192.3 346,188.8 Z" id="Path" fill="#B3BFE2"></path>
                <path d="M365,282.8 C364.5,303.5 364,324.3 363.5,345 C363.4,348.6 369.1,348.6 369.2,345 C369.7,324.3 370.2,303.5 370.7,282.8 C370.8,279.2 365.1,279.2 365,282.8 Z" id="Path" fill="#B3BFE2"></path>
                <path d="M405.4,355.6 L384.4,287.7 C383.3,284.2 377.9,285.7 378.9,289.2 L399.9,357.1 C401.1,360.6 406.5,359.1 405.4,355.6 Z" id="Path" fill="#B3BFE2"></path>
                <path d="M90.4,370.5 C85.5,323.8 70.3,95.6 67.8,62.3 C65.6,32.3 65.6,28.4 59.9,26.2 C58,26.9 54.1,34.3 49.6,34.2 C45.1,34.1 40.8,27 38.7,29.3 C31.2,37.5 22.2,29 20.3,24.8 C13.6,25 14.8,34.8 14.1,47.4 C12.7,70.7 9.9,369.8 12,383.2 C14.1,396.6 33.9,388.1 56.5,393.8 C79.1,399.5 95.3,417.1 90.4,370.5 Z" id="Path" fill="#FFFFFF"></path>
                <path d="M82.7,404.4 C78.6,404.4 73.8,402.6 68.4,400.5 C64.6,399 60.2,397.4 55.8,396.3 C47.3,394.2 39.2,394.1 32.1,394.1 C20.8,394 11,394 9.3,383.6 C7.2,370.4 9.9,72.7 11.4,47.2 C11.5,44.9 11.6,42.6 11.7,40.5 C12,30.8 12.3,22.4 20.2,22.1 C21.3,22 22.2,22.7 22.7,23.6 C23.6,25.5 27,29.3 30.8,29.9 C33,30.2 34.9,29.4 36.8,27.4 C39.5,24.4 43,27.2 45,28.8 C46.5,30 48.3,31.4 49.6,31.5 C49.6,31.5 49.6,31.5 49.6,31.5 C51.3,31.5 53.6,28.8 55.2,27 C56.6,25.4 57.6,24.2 58.9,23.7 C59.5,23.5 60.2,23.5 60.8,23.7 C67.7,26.4 68,30.5 70,57.6 L70.3,62 C70.9,70.2 72.3,90.1 74.1,116.2 C79.7,198 89.2,335 92.9,370.1 C94.9,388.9 93.6,398.6 88.6,402.4 C86.9,403.9 84.9,404.4 82.7,404.4 Z M19.1,27.8 C17.5,29.1 17.2,33.2 17,40.6 C16.9,42.8 16.9,45.1 16.7,47.5 C15.2,72.9 12.5,369.6 14.6,382.7 C15.5,388.2 19.9,388.7 32.2,388.8 C39.2,388.8 48,388.9 57.2,391.2 C62,392.4 66.5,394.1 70.4,395.6 C77.1,398.2 82.9,400.4 85.6,398.3 C88.8,395.8 89.6,386.5 87.9,370.7 L87.9,370.7 C84.2,335.4 74.7,198.4 69.1,116.6 C67.3,90.5 65.9,70.6 65.3,62.4 L65,58 C63.4,36.1 62.9,31.1 60.4,29.2 C60.1,29.5 59.7,30 59.4,30.3 C57.1,33 54,36.6 49.8,36.6 C49.7,36.6 49.7,36.6 49.6,36.6 C46.5,36.5 43.9,34.5 41.9,32.8 C41.4,32.4 40.7,31.8 40.2,31.5 C36.6,35.1 32.8,35.4 30.2,35 C25.3,34.4 21.2,30.9 19.1,27.8 Z" id="Shape" fill="#FFFFFF"></path>
                <path d="M28.8,45.3 C27.9,115.5 27,185.8 26.1,256 C26.1,259.6 31.7,259.6 31.8,256 C32.7,185.8 33.6,115.5 34.5,45.3 C34.5,41.6 28.8,41.6 28.8,45.3 Z" id="Path" fill="#B3BFE2"></path>
                <path d="M51.6,70.7 C51.5,67.1 45.8,67.1 45.9,70.7 C49.3,170.1 52.8,269.6 56.2,369 C56.3,372.6 62,372.6 61.9,369 C58.4,269.6 55,170.2 51.6,70.7 Z" id="Path" fill="#B3BFE2"></path>
            </g>
            <g id="Computer_1_" transform="translate(166.000000, 366.000000)">
                <path d="M94.4,23.6 C28.7,23.8 30.1,22.3 29.2,14.4 C28.7,9.4 29.2,4.3 45.9,4.8 C60.3,5.2 75.6,4.4 103.7,4.2 C162.1,3.8 163.5,5.2 163.3,14.4 C163.1,24.9 160.1,23.4 94.4,23.6 Z" id="Path" fill="#8C94BF"></path>
                <path d="M216.1,4.9 C209.6,4.9 209.6,15 216.1,15 C222.7,15.1 222.7,4.9 216.1,4.9 Z" id="Path" fill="#FFFFFF"></path>
                <path d="M232.4,4.9 C225.9,4.9 225.9,15 232.4,15 C238.9,15.1 238.9,4.9 232.4,4.9 Z" id="Path" fill="#FFFFFF"></path>
                <path d="M191.5,0.9 C175.4,0.9 175.9,23.7 190.2,24.2 C208.8,25 207.2,0.9 191.5,0.9 Z" id="Path" fill="#8C94BF"></path>
                <path d="M5.8,3.1 C5.5,-0.5 -0.1,-0.5 0.1,3.1 C0.5,9.2 1,15.4 1.4,21.5 C1.7,25.1 7.3,25.1 7.1,21.5 C6.7,15.3 6.3,9.2 5.8,3.1 Z" id="Path" fill="#FFFFFF"></path>
                <path d="M18.5,3.1 C18.2,-0.5 12.6,-0.5 12.8,3.1 C13.2,9.2 13.7,15.4 14.1,21.5 C14.4,25.1 20,25.1 19.8,21.5 C19.4,15.3 19,9.2 18.5,3.1 Z" id="Path" fill="#FFFFFF"></path>
            </g>
            <g id="Hand" transform="translate(364.000000, 187.000000)">
                <path d="M150.8,23 C10.1,-6 3,-2.5 0.9,11 C-0.9,22.2 12.9,24.4 12.9,24.4 C12.9,24.4 1.6,27.2 3.7,38.5 C5.8,49.8 17.1,52.6 17.1,52.6 C17.1,52.6 10,55.4 11.4,63.9 C13.7,77.4 48.4,88.6 64,94.3 C64,94.3 19.1,100.3 30.1,119 C37.2,131 85.6,113.4 111.2,116.9 C189,127.5 189,131 195.3,126.8 C201.7,122.7 160.7,25 150.8,23 Z" id="Path" fill="#F26AAC"></path>
                <path d="M32,20.4 C26.1,20.4 20.2,20.5 14.3,20.5 C10.7,20.5 10.7,26.2 14.3,26.2 C20.2,26.2 26.1,26.1 32,26.1 C35.7,26.1 35.7,20.4 32,20.4 Z" id="Path" fill="#000000"></path>
                <path d="M37.8,54.7 C31.2,53.3 24.6,51.9 18,50.4 C14.5,49.6 12.9,55.1 16.5,55.9 C23.1,57.3 29.7,58.7 36.3,60.2 C39.8,61 41.3,55.5 37.8,54.7 Z" id="Path" fill="#000000"></path>
                <path d="M76.6,93.2 C66.9,90.5 57.2,87.8 47.5,85 C44,84 42.5,89.5 46,90.5 C55.7,93.2 65.4,95.9 75.1,98.7 C78.6,99.6 80.1,94.2 76.6,93.2 Z" id="Path" fill="#000000"></path>
                <path d="M51.2,120.5 C48.5,114 40.6,111 34.4,114.7 C31.3,116.6 34.1,121.5 37.3,119.6 C40.1,117.9 44.4,118.8 45.8,122 C47.2,125.3 52.6,123.9 51.2,120.5 Z" id="Path" fill="#000000"></path>
            </g>
            <g id="Keyboard_1_" transform="translate(0.000000, 375.000000)">
                <path d="M43.3,112.3 C11.5,112.3 2,108.5 1,86.1 C0.5,75 2,68.4 6,64.1 C12.1,57.4 23.6,57 42.7,56.2 C49.4,55.9 57,55.6 65.7,55.1 C79.7,54.1 87.4,49.1 87.3,46 C87.2,43.4 79.6,36.3 45.4,35.5 C31.6,35.2 22.4,27.3 19.7,20.2 C17.8,15.1 18.9,10.1 22.7,6.5 C29.3,0.4 45.7,0.499899219 68.2,0.499899219 C71,0.499899219 73.9,0.499899219 76.8,0.499899219 C78.2,0.499899219 79.4,1.7 79.4,3.1 C79.4,4.5 78.2,5.7 76.8,5.7 C73.8,5.7 71,5.7 68.2,5.7 C47.6,5.6 31.4,5.6 26.2,10.3 C23.3,12.9 23.7,16.1 24.5,18.3 C26.7,24 34.5,30 45.4,30.2 C75.5,30.9 92.2,36.4 92.4,45.8 C92.6,53.2 81.7,59.1 65.9,60.2 C57.1,60.8 49.5,61.1 42.7,61.4 C25,62.1 14.3,62.5 9.7,67.6 C6.8,70.8 5.7,76.4 6.1,85.8 C7.1,107.1 13.9,107.8 67.2,106.6 C80.1,106.3 96.2,105.9 115.1,105.9 C116.5,105.9 117.7,107.1 117.7,108.5 C117.7,109.9 116.5,111.1 115.1,111.1 C96.2,111.1 80.2,111.5 67.3,111.8 C58.3,112.1 50.3,112.3 43.3,112.3 Z" id="Path" fill="#FFFFFF"></path>
                <path d="M295.8,56.4 C113.3,57.2 131.8,50.5 105.5,81.4 C104.9,82.1 104.3,82.9 103.6,83.6 C101.6,86 91.7,79.1 89.9,81.2 C82.1,90.5 84.9,106.6 85.9,111.5 C87.5,119.3 104.3,122.1 149.8,121.2 C232.5,119.6 426.9,121.8 453.1,122.3 C466,122.5 467.4,114 467.3,105.6 C467.3,100.5 467.1,94.1 465.6,90.6 C462.3,82.8 454.1,88 449,79.8 C435.8,58.6 433.7,55.8 295.8,56.4 Z" id="Path" fill="#FFFFFF"></path>
                <path d="M295.8,35.9 C113.3,36.7 131.8,30 105.5,60.9 C79.2,91.8 67.1,102.4 149.8,100.8 C232.5,99.2 426.9,103.1 453.1,101.9 C479.3,100.7 460.2,77.2 449.1,59.5 C435.8,38.1 433.7,35.3 295.8,35.9 Z" id="Path" fill="#FDD05B"></path>
                <path d="M170,42.1 C143.8,42.1 143.8,40.7 141,49.9 C138.2,59.1 136,61.2 160.8,61.9 C186.3,62.6 184.1,58.4 183.4,52 C182.7,45.7 179.9,42.1 170,42.1 Z" id="Path" fill="#F26AAC"></path>
                <path d="M215.9,42.8 C197,42.8 197,41.4 195,50.6 C193,59.8 191.4,61.9 209.3,62.6 C227.7,63.3 226.1,59.1 225.6,52.7 C225.1,46.4 223,42.8 215.9,42.8 Z" id="Path" fill="#F26AAC"></path>
                <path d="M230.1,70.4 C203.9,70.4 203.9,69 201.1,78.2 C198.3,87.4 196.1,90.1 220.9,90.2 C336.1,90.9 332.6,91.6 329.8,80.3 C327.4,70.5 332.6,70.4 230.1,70.4 Z" id="Path" fill="#B3BFE2"></path>
                <path d="M387.8,52 C369.4,52.6 370.5,53.5 371.5,64 C372.2,71.1 375.2,71.8 360.9,71.8 C348.9,71.8 348.2,69.7 347.5,81.7 C346.8,93.7 355.3,91.6 382.8,90.9 C410.3,90.2 413.2,92.3 409,75.3 C404.8,58.3 408.3,51.3 387.8,52 Z" id="Path" fill="#8C94BF"></path>
                <path d="M181.4,57 C167.9,58.3 154.5,58.2 141.1,56.5 C137.5,56.1 137.5,61.7 141.1,62.2 C154.6,63.8 168,64 181.4,62.7 C184.9,62.3 185,56.7 181.4,57 Z" id="Path" fill="#5C68FF"></path>
                <path d="M224.4,57.4 C215.2,58.6 206,58.6 196.8,57.6 C193.2,57.2 193.2,62.8 196.8,63.3 C206,64.4 215.2,64.3 224.4,63.1 C228,62.6 228.1,57 224.4,57.4 Z" id="Path" fill="#5C68FF"></path>
                <path d="M144,69.9 C125.2,68.8 121,68.4 118.5,77.5 C116,86.6 115.3,87.7 133.2,89.4 C151.5,91.2 153.3,86.7 153.2,80.3 C152.9,73.9 151.1,70.3 144,69.9 Z" id="Path" fill="#B3BFE2"></path>
                <path d="M151.9,86 C142.6,86.7 127.9,86.1 118.8,84.5 C115.2,83.9 115,89.6 118.5,90.1 C127.7,91.6 142.4,92.3 151.6,91.6 C155.2,91.3 155.6,85.7 151.9,86 Z" id="Path" fill="#5C68FF"></path>
                <path d="M329.3,86.3 C286.8,89.5 244.3,89.6 201.8,86.5 C198.2,86.2 198.2,91.9 201.8,92.2 C244.3,95.3 286.8,95.2 329.3,92 C332.9,91.7 332.9,86 329.3,86.3 Z" id="Path" fill="#5C68FF"></path>
                <path d="M409.1,88 C389.1,90.7 369.4,90.3 349.5,86.7 C345.9,86.1 344.4,91.5 348,92.2 C368.3,95.9 388.6,96.4 409.1,93.7 C412.6,93.2 412.7,87.5 409.1,88 Z" id="Path" fill="#5C68FF"></path>
                <path d="M374.5,70.3 C373.2,66.1 372.9,62 373.5,57.7 C374,54.1 368.3,54.1 367.8,57.7 C367.2,62.5 367.6,67.2 369,71.8 C370.1,75.3 375.5,73.8 374.5,70.3 Z" id="Path" fill="#5C68FF"></path>
            </g>
        </g>
    </g>
</svg>