<?xml version="1.0" encoding="UTF-8"?>
<svg width="587px" height="431px" viewBox="0 0 587 431" version="1.1" xmlns="http://www.w3.org/2000/svg" xmlns:xlink="http://www.w3.org/1999/xlink">
    <title>22</title>
    <g id="Page-1" stroke="none" stroke-width="1" fill="none" fill-rule="evenodd">
        <g id="22" fill-rule="nonzero">
            <g id="Clouds" transform="translate(0.000000, 134.000000)">
                <path d="M225.8,222.7 C224.1,207.7 221,189.7 205.6,182.6 C197.2,178.7 187.7,180.6 182.1,186.7 C181.3,181.3 179.2,176.3 174.3,173.4 C170.8,171.3 166.9,170.7 163.4,171.8 C168.1,147 170.8,116.8 148.3,100.1 C135.7,90.7 118,91.7 107.5,102.1 C107.2,65.6 65.3,40.3 33.1,65.2 C-6.7,96 12.5,148.1 32.8,185.5 C16.4,179.9 -1.2,201 0.4,219.2 C3.4,254.8 39.8,255.3 66.8,255.2 C114,254.9 156.7,256.4 204,253.5 C216.7,252.7 230.5,256.9 236.6,243.4 C241,233.8 235.7,224.1 225.8,222.7 Z" id="Path" fill="#B3BFE2"></path>
                <path d="M214.4,31.1 C222.4,22.5 221.9,8.2 209.8,2.3 C197.6,-3.6 186.5,4.7 184.4,16 C171.3,14.6 155.3,19 154.2,34.7 C153.5,45 162.8,52.4 171.8,50.5 C170.5,59.3 175.3,68.2 185.5,69.5 C195.9,70.8 202.8,63 203.5,53.8 C219.1,61 227.7,36 214.4,31.1 Z" id="Path" fill="#B3BFE2"></path>
                <path d="M136.9,183.2 C133.9,170.9 128.2,157.3 115.9,151.8 C106.2,147.4 94.6,148.8 87.5,157 C85.3,159.6 89,163.4 91.3,160.8 C98.4,152.6 110.9,153.2 118.8,160 C126.2,166.2 129.5,175.6 131.7,184.7 C132.5,188 137.7,186.5 136.9,183.2 Z" id="Path" fill="#FFFFFF"></path>
                <path d="M77.8,204 C68,201.6 57.9,209.4 57.9,219.6 C57.9,223 63.2,223 63.2,219.6 C63.2,213 69.9,207.6 76.4,209.2 C79.7,210 81.1,204.8 77.8,204 Z" id="Path" fill="#FFFFFF"></path>
                <path d="M186.1,24.1 C177.5,19.5 167.5,27.4 170.4,36.9 C171.4,40.2 176.6,38.8 175.6,35.5 C174.1,30.7 178.8,26.3 183.5,28.8 C186.4,30.3 189.1,25.7 186.1,24.1 Z" id="Path" fill="#FFFFFF"></path>
            </g>
            <g id="Button" transform="translate(500.000000, 29.000000)">
                <path d="M49,0.1 C3.6,0.1 4.9,6.8 1.9,30 C-1.1,53.2 -3.6,79.8 41.4,82.1 C65.4,83.3 81.6,78.3 84.9,64 C86.5,57.3 83.3,58 83.3,44.9 C83.3,17.1 88,0.1 49,0.1 Z" id="Path" fill="#FFFFFF"></path>
                <path d="M53.7,0 C13.3,0 16.3,4.2 13.6,25 C10.9,45.8 9.4,70.7 49.5,72.7 C89.6,74.7 86.9,64.4 86.9,39.4 C86.8,14.5 88.4,0 53.7,0 Z" id="Path" fill="#5C68FF"></path>
                <path d="M61.2,51.2 C51.9,39.6 42.5,28 33.2,16.4 C31,13.7 27.3,17.5 29.4,20.2 C38.7,31.8 48.1,43.4 57.4,55 C59.5,57.6 63.3,53.8 61.2,51.2 Z" id="Path" fill="#000000"></path>
                <path d="M62.3,14.3 C50.6,24.5 39.6,35.5 29.3,47.2 C27,49.8 30.8,53.6 33.1,51 C43.4,39.3 54.4,28.3 66.1,18.1 C68.7,15.8 64.9,12.1 62.3,14.3 Z" id="Path" fill="#000000"></path>
            </g>
            <g id="Message" transform="translate(204.000000, 245.000000)">
                <path d="M140.3,1.5 C79.7,1.5 25.4,-0.2 19.2,1.6 C13,3.4 -0.3,141.4 0.6,153 C1.5,164.6 215.2,157.3 220.6,152.9 C226,148.5 242.8,8.6 237.4,3.3 C232,-2.1 165.2,1.5 140.3,1.5 Z" id="Path" fill="#FDD05B"></path>
                <path d="M250.8,114.5 C225.8,114.5 227.7,145.7 245.5,146.6 C268.6,147.8 270.4,114.5 250.8,114.5 Z" id="Path" fill="#5C68FF"></path>
                <path d="M233.4,7.7 C201.9,37.5 172,65.2 134.7,87.6 C125.2,93.3 118.2,97.9 106,90.1 C102.5,87.8 99.5,84.1 96.4,81.2 C87.4,72.6 78.5,63.9 69.6,55.2 C53,39.1 36.4,23 19.8,6.9 C17.3,4.5 13.8,8.5 16.2,10.9 C36.6,30.7 57,50.5 77.5,70.3 C89.5,81.9 104.6,104.6 124.2,98.9 C135,95.7 144.8,87.4 153.9,81.1 C164.7,73.7 175.2,65.9 185.6,57.9 C205.2,42.7 219.4,28.3 237.4,11.2 C239.9,8.9 235.9,5.3 233.4,7.7 Z" id="Path" fill="#F26AAC"></path>
                <path d="M222.2,147.8 C203.8,121.1 183,96.4 159.9,73.7 C157.4,71.3 153.7,75.1 156.1,77.5 C178.9,99.9 199.4,124.3 217.5,150.5 C219.5,153.3 224.1,150.6 222.2,147.8 Z" id="Path" fill="#F26AAC"></path>
                <path d="M84.6,73.5 L4.7,150.9 C2.2,153.3 6,157.1 8.5,154.7 C35.1,128.9 61.7,103.1 88.3,77.4 C86.8,76.3 85.5,75 84.6,73.5 Z" id="Path" fill="#F26AAC"></path>
                <path d="M56.1,185.2 C54.3,185.2 52.4,185.2 50.4,185.1 C46.2,185 41.4,184.8 35.9,185 C25.9,185.3 19.7,183.5 15.8,179.1 C8.2,170.7 10.3,154.3 14.4,121.6 C16.2,107.5 18.4,90 20.3,69.2 C20.4,67.7 21.7,66.7 23.2,66.8 C24.7,66.9 25.8,68.2 25.6,69.7 C23.7,90.6 21.5,108.2 19.7,122.3 C15.9,152.4 13.8,169 19.7,175.6 C22.5,178.7 27.4,179.9 35.7,179.7 C41.3,179.5 46.2,179.7 50.5,179.8 C72,180.4 75.9,180.5 79.5,140.2 C80.4,130.5 81.4,121.4 82.5,112.6 C85.7,85.1 88.3,63.4 80.8,54.2 C78.5,51.4 75.3,49.8 70.9,49.3 C59.4,48.1 53.1,48.7 49.9,51.4 C46,54.6 45.5,61.7 44.5,73.5 C44.3,76 44.1,78.6 43.8,81.5 C41.1,110.2 39.3,147.5 39.3,147.8 C39.2,149.3 38,150.4 36.5,150.3 C35,150.2 33.9,149 34,147.5 C34,147.1 35.8,109.8 38.5,80.9 C38.8,78.1 39,75.4 39.2,73 C40.3,59.8 40.9,51.9 46.5,47.2 C51,43.4 58,42.5 71.5,43.9 C77.3,44.5 81.8,46.8 85,50.7 C93.8,61.7 91.2,84.4 87.8,113.1 C86.8,121.9 85.7,131 84.9,140.5 C81.3,180.5 75.6,185.2 56.1,185.2 Z" id="Path" fill="#FFFFFF"></path>
            </g>
            <g id="Bird" transform="translate(274.000000, 0.000000)">
                <path d="M175.1,109.4 C167.2,72 153.1,36.6 133.1,4.1 C130.2,-0.6 122.3,-2.80886425e-14 120.9,5.7 C119.6,11.1 119,16.4 118.8,21.7 C115.9,16.8 112.9,11.9 109.9,7.1 C106.1,1.1 98.3,4.1 97.5,10.5 C97,14.3 96.9,18 96.9,21.7 C95.8,20.5 94.8,19.4 93.7,18.2 C88.6,13 81.6,18.5 82.5,24.7 C86,47.1 93.5,68 104.9,87.5 C105.9,89.2 107.3,90.2 108.9,90.5 C111.3,94.9 114,99.2 117,103.3 C118.4,105.1 120.8,106.7 123.1,106.7 C126.6,109.9 132.5,109.3 134.1,104.9 C135.8,104.8 137.4,104 138.6,102.7 C141.4,104.5 145.7,103.4 147.9,100.7 C149.7,104.1 151.5,107.6 153.3,111.1 C155.1,114.7 159.3,115 162.3,113.4 C164.3,121.3 176.8,117.7 175.1,109.4 Z" id="Path" fill="#FF1A36"></path>
                <path d="M133.4,85.3 C161,86.2 201.1,82.6 210,129.8 C218.9,177 158.4,212.6 107.6,198.4 C56.8,184.2 37.2,159.3 23,146.8 C8.7,134.3 33.7,136.1 33.7,136.1 C33.7,136.1 19.4,126.3 21.2,118.3 C23,110.3 43.5,116.5 43.5,116.5 C43.5,116.5 58.6,110.3 60.4,101.4 C62.2,92.5 133.4,85.3 133.4,85.3 Z" id="Path" fill="#F26AAC"></path>
                <path d="M176.9,101.8 C156.7,100.7 156.7,135.5 175.6,135.5 C194.4,135.5 202.5,103.2 176.9,101.8 Z" id="Path" fill="#FFFFFF"></path>
                <path d="M177.1,107.5 C163.7,106.8 163.8,129.8 176.2,129.8 C188.7,129.8 194,108.4 177.1,107.5 Z" id="Path" fill="#000000"></path>
                <path d="M152.1,98.6 C122.7,71.9 54.1,-2.9 30.9,15.9 C7.8,34.6 59.4,77.3 59.4,77.3 C59.4,77.3 26.4,47.9 14.9,57.7 C3.3,67.5 45.2,95.1 45.2,95.1 C45.2,95.1 21.1,80.9 14,91.6 C6.9,102.3 90.6,146.8 90.6,146.8 L152.1,98.6 Z" id="Path" fill="#F26AAC"></path>
                <path d="M105.9,138.3 C83,130.8 60.6,122.2 38.7,112.4 C35.6,111 32.9,115.6 36,117 C58.4,127 81.2,135.8 104.5,143.4 C107.7,144.5 109.1,139.3 105.9,138.3 Z" id="Path" fill="#FFFFFF"></path>
                <path d="M87.7,181.9 C60.5,201.8 32.3,220.2 3.1,237.1 C0.1,238.8 2.8,243.4 5.8,241.7 C35,224.8 63.2,206.4 90.4,186.5 C93.1,184.5 90.4,179.9 87.7,181.9 Z" id="Path" fill="#2E47FF"></path>
                <path d="M108.4,187.6 C86.3,205.8 63.1,222.3 38.7,237.2 C35.8,239 38.5,243.6 41.4,241.8 C66.2,226.7 89.8,209.9 112.2,191.4 C114.8,189.2 111,185.4 108.4,187.6 Z" id="Path" fill="#2E47FF"></path>
                <path d="M4.1,238 C0.8,237.1 -0.6,242.2 2.7,243.2 C9.6,245.1 13.3,252.7 10.9,259.3 C9.8,262.5 14.9,263.9 16.1,260.7 C19.4,251.3 13.7,240.7 4.1,238 Z" id="Path" fill="#2E47FF"></path>
                <path d="M39.5,238.5 C36.1,239.1 37.6,244.3 40.9,243.7 C47.5,242.5 51.7,249.1 49.4,254.9 C48.1,258.1 53.3,259.5 54.6,256.3 C58.5,246.3 49.7,236.7 39.5,238.5 Z" id="Path" fill="#2E47FF"></path>
                <path d="M4.6,237.9 C1.3,238.8 2.7,244 6,243.1 C17.3,239.9 27.5,248.4 26.8,260 C26.6,263.4 31.9,263.4 32.1,260 C33.1,244.8 19.1,233.8 4.6,237.9 Z" id="Path" fill="#2E47FF"></path>
                <path d="M40.3,237.1 C37.1,238.3 38.5,243.5 41.7,242.3 C52,238.4 62.9,246.2 60.9,257.5 C60.3,260.9 65.5,262.3 66.1,258.9 C68.7,244 54.8,231.6 40.3,237.1 Z" id="Path" fill="#2E47FF"></path>
                <path d="M229.8,114.9 C220,116.4 210.2,117.9 200.4,119.4 C197,119.9 198.5,125.1 201.8,124.6 C211.6,123.1 221.4,121.6 231.2,120.1 C234.6,119.5 233.2,114.4 229.8,114.9 Z" id="Path" fill="#FDD05B"></path>
                <path d="M226.1,126.2 L204.7,126.2 C201.3,126.2 201.3,131.5 204.7,131.5 L226.1,131.5 C229.5,131.5 229.5,126.2 226.1,126.2 Z" id="Path" fill="#FDD05B"></path>
            </g>
        </g>
    </g>
</svg>